<svg width="38" height="37" viewBox="0 0 38 37" fill="none" xmlns="http://www.w3.org/2000/svg">
<path d="M21.937 4.31596C21.9817 4.1486 22.059 3.99169 22.1645 3.85422C22.2699 3.71674 22.4014 3.60138 22.5514 3.51474C22.7014 3.42809 22.867 3.37185 23.0388 3.34924C23.2106 3.32663 23.3851 3.33808 23.5524 3.38294C25.9972 4.0208 28.2277 5.29883 30.0143 7.08539C31.8008 8.87195 33.0788 11.1025 33.7167 13.5472C33.7616 13.7145 33.773 13.8891 33.7504 14.0608C33.7278 14.2326 33.6716 14.3982 33.5849 14.5483C33.4983 14.6983 33.3829 14.8298 33.2454 14.9352C33.108 15.0406 32.9511 15.1179 32.7837 15.1627C32.6723 15.1919 32.5576 15.2069 32.4425 15.2072C32.1519 15.2072 31.8694 15.1112 31.639 14.9341C31.4085 14.757 31.243 14.5088 31.1682 14.228C30.648 12.2323 29.6049 10.4114 28.1466 8.95305C26.6882 7.4947 24.8674 6.45165 22.8716 5.93143C22.7041 5.88684 22.547 5.80966 22.4094 5.70431C22.2717 5.59897 22.1562 5.46751 22.0694 5.31747C21.9826 5.16743 21.9262 5.00175 21.9035 4.8299C21.8808 4.65805 21.8921 4.4834 21.937 4.31596ZM21.5529 11.2064C23.8261 11.8131 25.2866 13.2736 25.8932 15.5468C25.9681 15.8276 26.1335 16.0758 26.364 16.2529C26.5944 16.4299 26.8769 16.5259 27.1675 16.5259C27.2826 16.5256 27.3973 16.5107 27.5087 16.4814C27.6761 16.4367 27.833 16.3594 27.9704 16.2539C28.1079 16.1485 28.2233 16.017 28.3099 15.867C28.3966 15.717 28.4528 15.5514 28.4754 15.3796C28.498 15.2078 28.4866 15.0333 28.4417 14.866C27.5977 11.7076 25.3921 9.50194 22.2337 8.65794C22.0664 8.61324 21.8919 8.60193 21.7201 8.62467C21.5484 8.64741 21.3829 8.70374 21.233 8.79046C21.083 8.87717 20.9516 8.99257 20.8463 9.13006C20.741 9.26755 20.6637 9.42445 20.619 9.59178C20.5743 9.75912 20.563 9.93362 20.5858 10.1053C20.6085 10.277 20.6648 10.4426 20.7516 10.5925C20.8383 10.7424 20.9537 10.8738 21.0912 10.9792C21.2287 11.0845 21.3856 11.1617 21.5529 11.2064ZM35.0602 26.9243C34.7663 29.158 33.6693 31.2083 31.9741 32.6923C30.279 34.1763 28.1016 34.9925 25.8487 34.9884C12.7601 34.9884 2.11122 24.3395 2.11122 11.2509C2.10718 8.998 2.92338 6.82063 4.40738 5.1255C5.89138 3.43037 7.94169 2.33339 10.1754 2.03947C10.7402 1.9705 11.3122 2.08606 11.806 2.36889C12.2998 2.65172 12.6888 3.08666 12.9151 3.60878L16.3966 11.3812V11.4009C16.5698 11.8006 16.6413 12.237 16.6048 12.671C16.5683 13.1051 16.4248 13.5233 16.1872 13.8884C16.1576 13.9329 16.1262 13.9742 16.0933 14.0154L12.6612 18.0837C13.8959 20.5926 16.5202 23.1939 19.0621 24.4318L23.0744 21.0179C23.1138 20.9848 23.1551 20.954 23.198 20.9256C23.5628 20.6823 23.9825 20.5338 24.4191 20.4935C24.8558 20.4532 25.2955 20.5224 25.6987 20.6948L25.7201 20.7047L33.4859 24.1846C34.009 24.41 34.445 24.7987 34.7287 25.2926C35.0125 25.7864 35.1288 26.3589 35.0602 26.9243ZM32.4425 26.5946C32.4425 26.5946 32.4309 26.5946 32.4243 26.5946L24.6767 23.1246L20.6627 26.5385C20.6238 26.5715 20.5831 26.6023 20.5407 26.6309C20.1612 26.8841 19.7225 27.0345 19.2674 27.0674C18.8123 27.1004 18.3565 27.0147 17.9445 26.8188C14.8569 25.3269 11.7793 22.2724 10.2858 19.2178C10.0881 18.8088 9.99931 18.3556 10.0282 17.9021C10.0571 17.4487 10.2026 17.0104 10.4507 16.6298C10.4786 16.5851 10.51 16.5426 10.5446 16.5029L13.98 12.4296L10.5182 4.68191C10.5176 4.67533 10.5176 4.66871 10.5182 4.66213C8.91968 4.87066 7.45195 5.65476 6.38992 6.8676C5.32789 8.08044 4.7444 9.63883 4.74872 11.2509C4.75483 16.8451 6.97982 22.2084 10.9355 26.1641C14.8912 30.1198 20.2545 32.3448 25.8487 32.3509C27.4598 32.3565 29.0178 31.775 30.2313 30.7153C31.4449 29.6556 32.2309 28.1901 32.4425 26.5929V26.5946Z" fill="#BA68C8"/>
</svg>
