<svg width="340" height="314" viewBox="0 0 340 314" fill="none" xmlns="http://www.w3.org/2000/svg">
<path d="M129.969 22.7905C130.274 22.7557 130.58 22.7383 130.886 22.7385C130.601 19.5544 132.253 17.547 135.775 17.547C138.319 17.547 141.434 18.6113 144.618 20.411C143.709 14.2331 146.617 10.2097 153.218 10.2097C158.54 10.2097 165.271 12.8055 171.925 17.1317C172.505 14.709 174.469 13.2554 177.766 13.2554C183.545 13.2554 191.774 17.7374 198.367 24.071C200.117 22.4983 202.391 21.6344 204.744 21.6483C210.256 21.3628 217.091 23.9412 223.157 28.1464C223.446 27.7567 223.825 27.4429 224.262 27.232C224.699 27.021 225.181 26.9191 225.666 26.935C228.677 26.7879 232.83 29.0981 235.236 32.2044H125.124C122.537 27.4541 124.596 23.3356 129.969 22.7905Z" fill="#F5F5F5"/>
<path d="M277.65 9.30105C275.227 4.10955 277.157 0.345703 283.067 0.345703C286.778 0.345703 291.382 1.80798 295.864 4.19607C296.365 2.83763 297.793 2.01564 300.086 2.01564C304.127 2.01564 309.69 4.54217 314.051 8.07239C315.399 7.17747 316.984 6.70729 318.602 6.7226C322.461 6.5582 327.142 8.00317 331.209 10.3653C331.447 10.1376 331.728 9.95975 332.035 9.84235C332.343 9.72496 332.671 9.67035 333 9.68175C334.288 9.72821 335.553 10.0422 336.713 10.6038C337.874 11.1654 338.905 11.9622 339.74 12.9437L340 13.2898H274.63C272.562 11.4555 274.847 9.38757 277.65 9.30105Z" fill="#F5F5F5"/>
<path d="M58.0582 179.851H28.5878V274.059H58.0582V179.851Z" fill="#EBEBEB"/>
<path d="M48.428 274.059H96.7523L96.7523 147.066H48.428L48.428 274.059Z" fill="#F5F5F5"/>
<path d="M121.836 147.066H96.7523V274.059H121.836V147.066Z" fill="#EBEBEB"/>
<path d="M54.9261 147.066H96.7523V134.442H54.9261V147.066Z" fill="#F5F5F5"/>
<path d="M54.9261 147.066H96.7523V144.228H54.9261V147.066Z" fill="#EBEBEB"/>
<path d="M115.329 134.442H96.7523V147.066H115.329V134.442Z" fill="#EBEBEB"/>
<path d="M61.4241 134.442H96.7436V121.818H61.4241V134.442Z" fill="#F5F5F5"/>
<path d="M61.4241 134.442H96.7436V131.604H61.4241V134.442Z" fill="#EBEBEB"/>
<path d="M108.831 121.818H96.7523V134.442H108.831V121.818Z" fill="#EBEBEB"/>
<path d="M86.3 104.184H83.9552V121.827H86.3V104.184Z" fill="#EBEBEB"/>
<path d="M113.824 274.059H149.117V169.147H113.824L113.824 274.059Z" fill="#F5F5F5"/>
<path d="M167.434 169.147H149.117V274.059H167.434V169.147Z" fill="#EBEBEB"/>
<path d="M158.271 199.119L185.034 222.066V274.059H158.271V199.119Z" fill="#F5F5F5"/>
<path d="M198.93 222.057H185.042V274.05H198.93V222.057Z" fill="#EBEBEB"/>
<path d="M198.93 222.066H185.034L158.271 199.119H172.167L198.93 222.066Z" fill="#EBEBEB"/>
<path d="M324.374 274.059C324.745 271.98 325.628 270.027 326.944 268.376C328.26 266.725 329.967 265.427 331.91 264.602C330.204 267.446 329.429 270.753 329.695 274.059H324.374Z" fill="#EBEBEB"/>
<path d="M74.7748 274.059C74.4037 271.98 73.5202 270.027 72.2043 268.376C70.8885 266.725 69.1818 265.427 67.2385 264.602C68.9445 267.446 69.7189 270.753 69.4536 274.059H74.7748Z" fill="#EBEBEB"/>
<path d="M12.9787 274.059C12.9787 274.059 12.5547 262.984 7.9256 259.765C9.8205 264.29 9.42248 274.059 9.42248 274.059H12.9787Z" fill="#EBEBEB"/>
<path d="M11.2395 274.059C11.2395 274.059 11.6635 267.699 16.2926 265.856C14.3977 268.452 14.813 274.059 14.813 274.059H11.2395Z" fill="#EBEBEB"/>
<path d="M78.7377 274.059C78.7377 274.059 78.2705 263.572 69.8776 259.765C73.6327 265.147 73.4164 274.059 73.4164 274.059H78.7377Z" fill="#EBEBEB"/>
<path d="M285.688 259.869H264.481C264.251 259.869 264.031 259.778 263.869 259.615C263.707 259.453 263.616 259.233 263.616 259.004V237.822C263.616 237.593 263.707 237.373 263.869 237.21C264.031 237.048 264.251 236.957 264.481 236.957H285.688C285.918 236.957 286.138 237.048 286.3 237.21C286.462 237.373 286.553 237.593 286.553 237.822V259.004C286.553 259.233 286.462 259.453 286.3 259.615C286.138 259.778 285.918 259.869 285.688 259.869ZM265.346 258.138H284.823V238.688H265.346V258.138Z" fill="#E0E0E0"/>
<path d="M285.688 238.687H264.481C264.251 238.687 264.031 238.596 263.869 238.434C263.707 238.272 263.616 238.052 263.616 237.822V216.606C263.616 216.377 263.707 216.157 263.869 215.994C264.031 215.832 264.251 215.741 264.481 215.741H285.688C285.918 215.741 286.138 215.832 286.3 215.994C286.462 216.157 286.553 216.377 286.553 216.606V237.822C286.553 238.052 286.462 238.272 286.3 238.434C286.138 238.596 285.918 238.687 285.688 238.687ZM265.346 236.957H284.823V217.471H265.346V236.957Z" fill="#E0E0E0"/>
<path d="M285.688 259.869C285.46 259.865 285.242 259.772 285.082 259.609L263.867 238.402C263.704 238.239 263.612 238.018 263.612 237.787C263.612 237.557 263.704 237.336 263.867 237.173C264.029 237.01 264.25 236.919 264.481 236.919C264.711 236.919 264.932 237.01 265.095 237.173L286.302 258.424C286.464 258.586 286.554 258.805 286.554 259.034C286.554 259.262 286.464 259.482 286.302 259.644C286.135 259.796 285.914 259.877 285.688 259.869Z" fill="#E0E0E0"/>
<path d="M285.688 238.687C285.461 238.686 285.244 238.596 285.082 238.437L263.867 217.221C263.705 217.058 263.615 216.839 263.615 216.611C263.615 216.382 263.705 216.163 263.867 216.001C263.947 215.919 264.043 215.855 264.148 215.811C264.254 215.767 264.367 215.745 264.481 215.745C264.595 215.745 264.708 215.767 264.814 215.811C264.919 215.855 265.015 215.919 265.095 216.001L286.302 237.208C286.424 237.329 286.508 237.483 286.542 237.652C286.575 237.821 286.558 237.995 286.492 238.154C286.426 238.313 286.315 238.448 286.171 238.543C286.028 238.638 285.86 238.688 285.688 238.687Z" fill="#E0E0E0"/>
<path d="M285.688 217.471H264.481C264.251 217.471 264.031 217.38 263.869 217.218C263.707 217.056 263.616 216.836 263.616 216.606V195.399C263.616 195.169 263.707 194.949 263.869 194.787C264.031 194.625 264.251 194.534 264.481 194.534H285.688C285.918 194.534 286.138 194.625 286.3 194.787C286.462 194.949 286.553 195.169 286.553 195.399V216.606C286.553 216.836 286.462 217.056 286.3 217.218C286.138 217.38 285.918 217.471 285.688 217.471ZM265.346 215.741H284.823V196.264H265.346V215.741Z" fill="#E0E0E0"/>
<path d="M285.688 196.264H264.481C264.251 196.264 264.031 196.173 263.869 196.011C263.707 195.849 263.616 195.628 263.616 195.399V174.209C263.616 173.98 263.707 173.759 263.869 173.597C264.031 173.435 264.251 173.344 264.481 173.344H285.688C285.918 173.344 286.138 173.435 286.3 173.597C286.462 173.759 286.553 173.98 286.553 174.209V195.425C286.547 195.65 286.452 195.863 286.291 196.02C286.129 196.177 285.913 196.264 285.688 196.264ZM265.346 194.534H284.823V175.074H265.346V194.534Z" fill="#E0E0E0"/>
<path d="M285.688 217.472C285.461 217.471 285.244 217.381 285.082 217.221L263.867 196.005C263.705 195.843 263.615 195.623 263.615 195.395C263.615 195.166 263.705 194.947 263.867 194.785C263.947 194.704 264.043 194.639 264.148 194.595C264.254 194.551 264.367 194.529 264.481 194.529C264.595 194.529 264.708 194.551 264.814 194.595C264.919 194.639 265.015 194.704 265.095 194.785L286.302 216.001C286.464 216.163 286.554 216.382 286.554 216.611C286.554 216.839 286.464 217.059 286.302 217.221C286.222 217.301 286.126 217.364 286.02 217.407C285.915 217.45 285.802 217.472 285.688 217.472Z" fill="#E0E0E0"/>
<path d="M285.688 196.264C285.46 196.261 285.242 196.168 285.082 196.005L263.867 174.797C263.704 174.634 263.612 174.413 263.612 174.183C263.612 173.953 263.704 173.732 263.867 173.569C264.029 173.406 264.25 173.314 264.481 173.314C264.711 173.314 264.932 173.406 265.095 173.569L286.302 194.785C286.464 194.947 286.554 195.166 286.554 195.395C286.554 195.623 286.464 195.842 286.302 196.005C286.222 196.086 286.127 196.151 286.021 196.196C285.916 196.241 285.803 196.264 285.688 196.264Z" fill="#E0E0E0"/>
<path d="M285.688 175.074H264.481C264.251 175.074 264.031 174.983 263.869 174.821C263.707 174.658 263.616 174.438 263.616 174.209V152.967C263.616 152.738 263.707 152.517 263.869 152.355C264.031 152.193 264.251 152.102 264.481 152.102H285.688C285.918 152.102 286.138 152.193 286.3 152.355C286.462 152.517 286.553 152.738 286.553 152.967V174.209C286.553 174.438 286.462 174.658 286.3 174.821C286.138 174.983 285.918 175.074 285.688 175.074ZM265.346 173.344H284.823V153.832H265.346V173.344Z" fill="#E0E0E0"/>
<path d="M285.688 153.832H264.481C264.251 153.832 264.031 153.741 263.869 153.579C263.707 153.417 263.616 153.197 263.616 152.967V131.76C263.616 131.53 263.707 131.31 263.869 131.148C264.031 130.986 264.251 130.895 264.481 130.895H285.688C285.918 130.895 286.138 130.986 286.3 131.148C286.462 131.31 286.553 131.53 286.553 131.76V152.967C286.553 153.197 286.462 153.417 286.3 153.579C286.138 153.741 285.918 153.832 285.688 153.832ZM265.346 152.102H284.823V132.625H265.346V152.102Z" fill="#E0E0E0"/>
<path d="M285.688 175.074C285.461 175.073 285.244 174.983 285.082 174.823L263.867 153.608C263.705 153.445 263.615 153.226 263.615 152.998C263.615 152.769 263.705 152.55 263.867 152.388C263.947 152.306 264.043 152.242 264.148 152.198C264.254 152.154 264.367 152.132 264.481 152.132C264.595 152.132 264.708 152.154 264.814 152.198C264.919 152.242 265.015 152.306 265.095 152.388L286.302 173.569C286.424 173.69 286.508 173.844 286.542 174.013C286.575 174.181 286.558 174.356 286.492 174.515C286.426 174.674 286.315 174.809 286.171 174.904C286.028 174.999 285.86 175.049 285.688 175.048V175.074Z" fill="#E0E0E0"/>
<path d="M264.481 82.9682H243.265C243.035 82.9682 242.815 82.8771 242.653 82.7148C242.491 82.5525 242.4 82.3325 242.4 82.103V60.8611C242.4 60.6316 242.491 60.4115 242.653 60.2493C242.815 60.087 243.035 59.9958 243.265 59.9958H264.481C264.71 59.9958 264.93 60.087 265.093 60.2493C265.255 60.4115 265.346 60.6316 265.346 60.8611V82.0684C265.351 82.1849 265.332 82.3011 265.29 82.4101C265.249 82.5191 265.186 82.6186 265.105 82.7027C265.024 82.7867 264.927 82.8536 264.82 82.8992C264.713 82.9449 264.597 82.9683 264.481 82.9682ZM244.13 81.2377H263.616V61.7263H244.13V81.2377Z" fill="#E0E0E0"/>
<path d="M285.688 82.9683H264.481C264.251 82.9683 264.031 82.8772 263.869 82.7149C263.707 82.5526 263.616 82.3326 263.616 82.1031C263.616 81.8736 263.707 81.6535 263.869 81.4912C264.031 81.329 264.251 81.2378 264.481 81.2378H284.823V39.7058C284.823 39.4763 284.914 39.2563 285.076 39.094C285.239 38.9317 285.459 38.8406 285.688 38.8406C285.918 38.8406 286.138 38.9317 286.3 39.094C286.462 39.2563 286.553 39.4763 286.553 39.7058V82.1031C286.553 82.3326 286.462 82.5526 286.3 82.7149C286.138 82.8772 285.918 82.9683 285.688 82.9683Z" fill="#E0E0E0"/>
<path d="M264.481 82.9686C264.333 82.9696 264.187 82.9326 264.057 82.861C263.927 82.7894 263.818 82.6856 263.74 82.5597C263.662 82.4337 263.617 82.2898 263.61 82.1417C263.604 81.9937 263.635 81.8464 263.702 81.714L284.918 39.3167C285.022 39.113 285.202 38.9585 285.419 38.8872C285.637 38.8158 285.873 38.8334 286.078 38.936C286.283 39.0382 286.439 39.2178 286.512 39.4352C286.585 39.6526 286.569 39.8901 286.467 40.0955L265.251 82.4927C265.179 82.6354 265.069 82.7554 264.933 82.8394C264.797 82.9234 264.641 82.9681 264.481 82.9686Z" fill="#E0E0E0"/>
<path d="M243.265 82.9682H222.058C221.828 82.9682 221.608 82.8771 221.446 82.7148C221.284 82.5525 221.193 82.3325 221.193 82.103V60.8611C221.193 60.6316 221.284 60.4115 221.446 60.2493C221.608 60.087 221.828 59.9958 222.058 59.9958H243.265C243.495 59.9958 243.715 60.087 243.877 60.2493C244.039 60.4115 244.13 60.6316 244.13 60.8611V82.0684C244.135 82.1849 244.116 82.3011 244.075 82.4101C244.033 82.5191 243.97 82.6186 243.889 82.7027C243.809 82.7867 243.712 82.8536 243.604 82.8992C243.497 82.9449 243.382 82.9683 243.265 82.9682ZM222.923 81.2377H242.4V61.7263H222.923V81.2377Z" fill="#E0E0E0"/>
<path d="M243.265 82.9682C243.096 82.9658 242.931 82.9138 242.791 82.8186C242.651 82.7233 242.542 82.5891 242.477 82.4325C242.413 82.2759 242.396 82.1038 242.428 81.9375C242.46 81.7713 242.541 81.6182 242.659 81.4973L263.867 60.2813C263.947 60.2002 264.043 60.1359 264.148 60.0919C264.254 60.048 264.367 60.0254 264.481 60.0254C264.595 60.0254 264.708 60.048 264.814 60.0919C264.919 60.1359 265.015 60.2002 265.095 60.2813C265.256 60.4435 265.347 60.6628 265.347 60.8913C265.347 61.1199 265.256 61.3392 265.095 61.5013L243.905 82.7173C243.821 82.8006 243.721 82.8659 243.611 82.9091C243.501 82.9522 243.383 82.9724 243.265 82.9682Z" fill="#E0E0E0"/>
<path d="M306.904 82.9682H285.688C285.459 82.9682 285.239 82.8771 285.076 82.7148C284.914 82.5525 284.823 82.3325 284.823 82.103V60.8611C284.823 60.6316 284.914 60.4115 285.076 60.2493C285.239 60.087 285.459 59.9958 285.688 59.9958H306.904C307.134 59.9958 307.354 60.087 307.516 60.2493C307.678 60.4115 307.769 60.6316 307.769 60.8611V82.0684C307.774 82.1849 307.755 82.3011 307.714 82.4101C307.672 82.5191 307.609 82.6186 307.528 82.7027C307.448 82.7867 307.351 82.8536 307.243 82.8992C307.136 82.9449 307.021 82.9683 306.904 82.9682ZM286.553 81.2377H306.039V61.7263H286.553V81.2377Z" fill="#E0E0E0"/>
<path d="M285.688 82.9682C285.519 82.9658 285.354 82.9138 285.214 82.8186C285.074 82.7233 284.965 82.5891 284.9 82.4325C284.836 82.2759 284.819 82.1038 284.851 81.9375C284.883 81.7713 284.964 81.6182 285.083 81.4973L306.29 60.2813C306.37 60.2002 306.466 60.1359 306.571 60.0919C306.677 60.048 306.79 60.0254 306.904 60.0254C307.018 60.0254 307.131 60.048 307.237 60.0919C307.342 60.1359 307.438 60.2002 307.518 60.2813C307.68 60.4435 307.77 60.6628 307.77 60.8913C307.77 61.1199 307.68 61.3392 307.518 61.5013L286.303 82.7173C286.222 82.7975 286.126 82.8609 286.02 82.904C285.915 82.947 285.802 82.9689 285.688 82.9682Z" fill="#E0E0E0"/>
<path d="M158.419 82.9684C158.305 82.9691 158.192 82.9473 158.086 82.9042C157.981 82.8611 157.885 82.7977 157.804 82.7175C157.643 82.5554 157.553 82.3361 157.553 82.1075C157.553 81.8789 157.643 81.6596 157.804 81.4975L179.012 60.2816C179.129 60.1579 179.284 60.0759 179.453 60.048L285.524 38.832C285.663 38.8042 285.807 38.8109 285.942 38.8517C286.078 38.8924 286.202 38.9659 286.303 39.0656L328.7 81.4629C328.79 81.5405 328.864 81.6359 328.916 81.7433C328.968 81.8506 328.997 81.9675 329.002 82.0867C329.006 82.2059 328.986 82.3247 328.943 82.4357C328.899 82.5467 328.833 82.6476 328.749 82.7319C328.664 82.8162 328.564 82.8822 328.453 82.9257C328.342 82.9692 328.223 82.9893 328.104 82.9847C327.984 82.9801 327.868 82.9509 327.76 82.899C327.653 82.847 327.557 82.7735 327.48 82.6829L285.437 40.6231L180.059 61.7265L159.024 82.7521C158.858 82.8994 158.641 82.9768 158.419 82.9684Z" fill="#E0E0E0"/>
<path d="M222.058 82.9684C221.944 82.9691 221.831 82.9472 221.726 82.9042C221.62 82.8611 221.524 82.7977 221.443 82.7175C221.282 82.5554 221.192 82.3361 221.192 82.1075C221.192 81.8789 221.282 81.6596 221.443 81.4975L242.659 60.2815C242.825 60.1398 243.038 60.0657 243.256 60.0741C243.473 60.0825 243.68 60.1728 243.834 60.3269C243.988 60.481 244.078 60.6876 244.087 60.9053C244.095 61.1231 244.021 61.336 243.879 61.5016L222.663 82.7175C222.502 82.8773 222.285 82.9674 222.058 82.9684Z" fill="#E0E0E0"/>
<path d="M222.058 82.9682H200.842C200.612 82.9682 200.392 82.8771 200.23 82.7148C200.068 82.5525 199.977 82.3325 199.977 82.103V60.8611C199.977 60.6316 200.068 60.4115 200.23 60.2493C200.392 60.087 200.612 59.9958 200.842 59.9958H222.058C222.287 59.9958 222.507 60.087 222.67 60.2493C222.832 60.4115 222.923 60.6316 222.923 60.8611V82.0684C222.928 82.1849 222.909 82.3011 222.867 82.4101C222.826 82.5191 222.763 82.6186 222.682 82.7027C222.601 82.7867 222.504 82.8536 222.397 82.8992C222.29 82.9449 222.174 82.9683 222.058 82.9682ZM201.707 81.2377H221.192V61.7263H201.707V81.2377Z" fill="#E0E0E0"/>
<path d="M200.842 82.9682H179.626C179.396 82.9682 179.176 82.8771 179.014 82.7148C178.852 82.5525 178.761 82.3325 178.761 82.103V60.8611C178.761 60.6316 178.852 60.4115 179.014 60.2493C179.176 60.087 179.396 59.9958 179.626 59.9958H200.842C201.071 59.9958 201.291 60.087 201.454 60.2493C201.616 60.4115 201.707 60.6316 201.707 60.8611V82.0684C201.712 82.1849 201.693 82.3011 201.651 82.4101C201.61 82.5191 201.547 82.6186 201.466 82.7027C201.385 82.7867 201.288 82.8536 201.181 82.8992C201.074 82.9449 200.958 82.9683 200.842 82.9682ZM180.491 81.2377H199.977V61.7263H180.491V81.2377Z" fill="#E0E0E0"/>
<path d="M200.842 82.9684C200.728 82.9691 200.615 82.9472 200.51 82.9042C200.404 82.8611 200.308 82.7977 200.227 82.7175C200.066 82.5554 199.976 82.3361 199.976 82.1075C199.976 81.8789 200.066 81.6596 200.227 81.4975L221.409 60.2815C221.574 60.1398 221.787 60.0657 222.005 60.0741C222.223 60.0825 222.429 60.1728 222.583 60.3269C222.738 60.481 222.828 60.6876 222.836 60.9053C222.845 61.1231 222.771 61.336 222.629 61.5016L201.422 82.7175C201.267 82.8712 201.06 82.9608 200.842 82.9684Z" fill="#E0E0E0"/>
<path d="M179.626 82.9682C179.456 82.9658 179.292 82.9138 179.151 82.8186C179.011 82.7233 178.902 82.5891 178.838 82.4325C178.773 82.2759 178.756 82.1038 178.789 81.9375C178.821 81.7713 178.902 81.6182 179.02 81.4973L200.227 60.2813C200.308 60.2002 200.404 60.1359 200.509 60.0919C200.614 60.048 200.728 60.0254 200.842 60.0254C200.956 60.0254 201.069 60.048 201.175 60.0919C201.28 60.1359 201.376 60.2002 201.456 60.2813C201.617 60.4435 201.708 60.6628 201.708 60.8913C201.708 61.1199 201.617 61.3392 201.456 61.5013L180.24 82.7173C180.159 82.7975 180.063 82.8609 179.958 82.904C179.853 82.947 179.74 82.9689 179.626 82.9682Z" fill="#E0E0E0"/>
<path d="M179.626 82.9682H158.419C158.189 82.9682 157.969 82.8771 157.807 82.7148C157.645 82.5525 157.553 82.3325 157.553 82.103C157.553 81.8735 157.645 81.6534 157.807 81.4912C157.969 81.3289 158.189 81.2377 158.419 81.2377H178.761V60.8611C178.761 60.6316 178.852 60.4115 179.014 60.2493C179.176 60.087 179.396 59.9958 179.626 59.9958C179.855 59.9958 180.075 60.087 180.238 60.2493C180.4 60.4115 180.491 60.6316 180.491 60.8611V82.0684C180.496 82.1849 180.477 82.3011 180.435 82.4101C180.394 82.5191 180.331 82.6186 180.25 82.7027C180.169 82.7867 180.072 82.8536 179.965 82.8992C179.858 82.9449 179.742 82.9683 179.626 82.9682Z" fill="#E0E0E0"/>
<path d="M285.688 153.832C285.461 153.831 285.244 153.741 285.082 153.582L263.867 132.374C263.786 132.294 263.722 132.198 263.678 132.092C263.635 131.987 263.612 131.874 263.612 131.76C263.612 131.646 263.635 131.533 263.678 131.427C263.722 131.322 263.786 131.226 263.867 131.146C263.947 131.065 264.043 131.001 264.148 130.957C264.254 130.914 264.367 130.891 264.481 130.891C264.595 130.891 264.708 130.914 264.813 130.957C264.919 131.001 265.014 131.065 265.095 131.146L286.302 152.362C286.464 152.524 286.554 152.743 286.554 152.972C286.554 153.2 286.464 153.419 286.302 153.582C286.222 153.662 286.126 153.725 286.02 153.768C285.915 153.811 285.802 153.833 285.688 153.832Z" fill="#E0E0E0"/>
<path d="M285.688 132.625H264.481C264.251 132.625 264.031 132.534 263.869 132.372C263.707 132.209 263.616 131.989 263.616 131.76V110.544C263.616 110.314 263.707 110.094 263.869 109.932C264.031 109.77 264.251 109.679 264.481 109.679H285.688C285.918 109.679 286.138 109.77 286.3 109.932C286.462 110.094 286.553 110.314 286.553 110.544V131.76C286.553 131.989 286.462 132.209 286.3 132.372C286.138 132.534 285.918 132.625 285.688 132.625ZM265.346 130.895H284.823V111.409H265.346V130.895Z" fill="#E0E0E0"/>
<path d="M285.688 111.409H264.481C264.251 111.409 264.031 111.318 263.869 111.156C263.707 110.994 263.616 110.773 263.616 110.544V89.3367C263.616 89.1072 263.707 88.8871 263.869 88.7249C264.031 88.5626 264.251 88.4714 264.481 88.4714H285.688C285.918 88.4714 286.138 88.5626 286.3 88.7249C286.462 88.8871 286.553 89.1072 286.553 89.3367V110.544C286.553 110.773 286.462 110.994 286.3 111.156C286.138 111.318 285.918 111.409 285.688 111.409ZM265.346 109.679H284.823V90.2019H265.346V109.679Z" fill="#E0E0E0"/>
<path d="M285.688 132.625C285.461 132.624 285.244 132.534 285.082 132.374L263.867 111.158C263.786 111.077 263.722 110.982 263.678 110.876C263.635 110.771 263.612 110.658 263.612 110.544C263.612 110.43 263.635 110.317 263.678 110.211C263.722 110.106 263.786 110.01 263.867 109.93C263.947 109.849 264.043 109.785 264.148 109.741C264.254 109.698 264.367 109.675 264.481 109.675C264.595 109.675 264.708 109.698 264.813 109.741C264.919 109.785 265.014 109.849 265.095 109.93L286.302 131.145C286.424 131.266 286.508 131.421 286.542 131.59C286.575 131.758 286.558 131.933 286.492 132.092C286.426 132.25 286.315 132.386 286.171 132.481C286.028 132.576 285.86 132.626 285.688 132.625Z" fill="#E0E0E0"/>
<path d="M285.688 111.409C285.461 111.408 285.244 111.318 285.082 111.158L263.867 89.9422C263.705 89.7801 263.615 89.5608 263.615 89.3322C263.615 89.1037 263.705 88.8844 263.867 88.7222C263.947 88.6411 264.043 88.5768 264.148 88.5329C264.254 88.4889 264.367 88.4663 264.481 88.4663C264.595 88.4663 264.708 88.4889 264.814 88.5329C264.919 88.5768 265.015 88.6411 265.095 88.7222L286.302 109.93C286.424 110.051 286.508 110.205 286.542 110.374C286.575 110.542 286.558 110.717 286.492 110.876C286.426 111.034 286.315 111.17 286.171 111.265C286.028 111.36 285.86 111.41 285.688 111.409Z" fill="#E0E0E0"/>
<path d="M328.12 82.103H158.419L179.626 89.3365H328.12V82.103Z" fill="#E0E0E0"/>
<path d="M328.12 90.2017H179.626C179.531 90.2012 179.437 90.1836 179.349 90.1498L158.133 82.9249C157.936 82.8603 157.769 82.7273 157.662 82.5499C157.555 82.3726 157.515 82.1627 157.55 81.9584C157.584 81.7542 157.691 81.5691 157.85 81.4368C158.01 81.3046 158.211 81.2339 158.419 81.2377H328.12C328.349 81.2377 328.57 81.3289 328.732 81.4911C328.894 81.6534 328.985 81.8735 328.985 82.1029V89.3364C328.985 89.5659 328.894 89.786 328.732 89.9483C328.57 90.1105 328.349 90.2017 328.12 90.2017ZM179.773 88.4712H327.255V82.9682H163.636L179.773 88.4712Z" fill="#E0E0E0"/>
<path d="M248.777 119.093H264.481V85.7198H248.777V119.093Z" fill="#E0E0E0"/>
<path d="M248.768 85.7197H241.465V119.092H248.768V85.7197Z" fill="#F5F5F5"/>
<path d="M266.817 274.05H297.741V259.03H266.817V274.05Z" fill="#E0E0E0"/>
<path d="M266.817 259.038H252.428V274.059H266.817V259.038Z" fill="#F5F5F5"/>
<path d="M306.904 119.387C306.675 119.387 306.455 119.295 306.292 119.133C306.13 118.971 306.039 118.751 306.039 118.521V85.7197C306.039 85.4903 306.13 85.2702 306.292 85.1079C306.455 84.9457 306.675 84.8545 306.904 84.8545C307.134 84.8545 307.354 84.9457 307.516 85.1079C307.678 85.2702 307.769 85.4903 307.769 85.7197V118.521C307.769 118.751 307.678 118.971 307.516 119.133C307.354 119.295 307.134 119.387 306.904 119.387Z" fill="#E0E0E0"/>
<path d="M306.904 123.367C306.339 123.367 305.787 123.2 305.318 122.886C304.848 122.572 304.482 122.126 304.266 121.604C304.05 121.083 303.994 120.509 304.104 119.955C304.214 119.401 304.486 118.892 304.885 118.493C305.284 118.093 305.793 117.822 306.347 117.711C306.901 117.601 307.475 117.658 307.997 117.874C308.519 118.09 308.965 118.456 309.278 118.925C309.592 119.395 309.759 119.947 309.759 120.512C309.759 120.887 309.686 121.258 309.542 121.604C309.399 121.951 309.188 122.266 308.923 122.531C308.658 122.796 308.343 123.006 307.997 123.15C307.65 123.293 307.279 123.367 306.904 123.367ZM306.904 119.387C306.682 119.387 306.464 119.453 306.279 119.577C306.094 119.7 305.95 119.876 305.865 120.081C305.78 120.287 305.758 120.513 305.801 120.731C305.844 120.949 305.951 121.15 306.109 121.307C306.266 121.464 306.467 121.572 306.685 121.615C306.903 121.658 307.129 121.636 307.335 121.551C307.54 121.466 307.716 121.322 307.839 121.137C307.963 120.952 308.029 120.734 308.029 120.512C308.029 120.364 308 120.218 307.943 120.081C307.887 119.945 307.804 119.821 307.7 119.716C307.595 119.612 307.471 119.529 307.335 119.473C307.198 119.416 307.052 119.387 306.904 119.387Z" fill="#E0E0E0"/>
<path d="M182.291 136.605C182.061 136.605 181.841 136.514 181.679 136.352C181.517 136.189 181.426 135.969 181.426 135.74V85.7197C181.426 85.4903 181.517 85.2702 181.679 85.1079C181.841 84.9457 182.061 84.8545 182.291 84.8545C182.52 84.8545 182.74 84.9457 182.903 85.1079C183.065 85.2702 183.156 85.4903 183.156 85.7197V135.74C183.156 135.969 183.065 136.189 182.903 136.352C182.74 136.514 182.52 136.605 182.291 136.605Z" fill="#E0E0E0"/>
<path d="M190.416 141.788C190.209 141.791 190.009 141.72 189.85 141.589C189.692 141.457 189.585 141.273 189.55 141.07C188.91 140.066 183.277 136.744 182.248 136.605C181.279 136.735 175.646 140.066 175.005 141.07C174.986 141.299 174.876 141.512 174.7 141.66C174.524 141.809 174.296 141.881 174.067 141.862C173.837 141.842 173.625 141.732 173.476 141.556C173.328 141.38 173.255 141.152 173.275 140.923C173.275 138.976 181.123 134.866 182.256 134.866C183.39 134.866 191.246 138.967 191.246 140.923C191.246 141.146 191.16 141.361 191.005 141.523C190.85 141.684 190.639 141.779 190.416 141.788Z" fill="#E0E0E0"/>
<path d="M199.778 204.328L212.471 191.635L209.763 186.444C209.996 185.924 210.212 185.405 210.411 184.869L215.975 183.138V165.21L210.411 163.48C210.204 162.952 209.996 162.424 209.763 161.905L212.462 156.714L199.778 144.046L194.586 146.746C194.067 146.512 193.548 146.296 193.02 146.097L191.289 140.533H173.318L171.588 146.097C171.06 146.296 170.541 146.512 170.022 146.746L164.83 144.046L152.189 156.731L154.897 161.922C154.655 162.442 154.447 162.969 154.239 163.497L148.676 165.228V183.173L154.239 184.903C154.447 185.44 154.655 185.959 154.888 186.478L152.189 191.67L164.882 204.363L170.074 201.655C170.593 201.888 171.12 202.105 171.648 202.304L173.379 207.867H191.333L193.063 202.304C193.591 202.105 194.11 201.888 194.629 201.655L199.778 204.328ZM191.774 183.623C189.906 185.492 187.526 186.765 184.934 187.281C182.342 187.797 179.656 187.533 177.214 186.522C174.773 185.511 172.686 183.799 171.218 181.601C169.749 179.404 168.966 176.821 168.966 174.179C168.966 171.536 169.749 168.953 171.218 166.756C172.686 164.559 174.773 162.846 177.214 161.836C179.656 160.825 182.342 160.56 184.934 161.076C187.526 161.592 189.906 162.865 191.774 164.734C193.014 165.976 193.996 167.45 194.665 169.072C195.335 170.694 195.678 172.431 195.674 174.186C195.671 175.94 195.322 177.677 194.647 179.296C193.972 180.916 192.984 182.386 191.739 183.623H191.774Z" fill="#E0E0E0"/>
<path d="M167.763 313.133C260.416 313.133 335.527 308.748 335.527 303.339C335.527 297.929 260.416 293.544 167.763 293.544C75.1102 293.544 0 297.929 0 303.339C0 308.748 75.1102 313.133 167.763 313.133Z" fill="#F5F5F5"/>
<path d="M103.64 84.3528H92.8414C92.3477 84.3533 91.8628 84.4829 91.4347 84.7288C91.0067 84.9747 90.6504 85.3283 90.4013 85.7545L85.0022 95.1078C84.7555 95.5369 84.6256 96.0232 84.6256 96.5182C84.6256 97.0132 84.7555 97.4995 85.0022 97.9286L90.4013 107.273C90.648 107.702 91.0035 108.059 91.4319 108.306C91.8603 108.554 92.3465 108.684 92.8414 108.684H103.64C104.135 108.684 104.621 108.554 105.049 108.306C105.478 108.059 105.833 107.702 106.08 107.273L111.479 97.9286C111.726 97.4995 111.855 97.0132 111.855 96.5182C111.855 96.0232 111.726 95.5369 111.479 95.1078L106.08 85.7545C105.831 85.3283 105.474 84.9747 105.046 84.7288C104.618 84.4829 104.133 84.3533 103.64 84.3528Z" fill="#BA68C8"/>
<path opacity="0.5" d="M103.64 84.3528H92.8414C92.3477 84.3533 91.8628 84.4829 91.4347 84.7288C91.0067 84.9747 90.6504 85.3283 90.4013 85.7545L85.0022 95.1078C84.7555 95.5369 84.6256 96.0232 84.6256 96.5182C84.6256 97.0132 84.7555 97.4995 85.0022 97.9286L90.4013 107.273C90.648 107.702 91.0035 108.059 91.4319 108.306C91.8603 108.554 92.3465 108.684 92.8414 108.684H103.64C104.135 108.684 104.621 108.554 105.049 108.306C105.478 108.059 105.833 107.702 106.08 107.273L111.479 97.9286C111.726 97.4995 111.855 97.0132 111.855 96.5182C111.855 96.0232 111.726 95.5369 111.479 95.1078L106.08 85.7545C105.831 85.3283 105.474 84.9747 105.046 84.7288C104.618 84.4829 104.133 84.3533 103.64 84.3528Z" fill="white"/>
<path d="M34.5149 53.3596L33.9006 52.7453L39.0921 47.5538L39.7064 48.1681L34.5149 53.3596ZM43.4529 44.4216L42.8386 43.8073L53.6888 32.957L54.3032 33.5627L43.4529 44.4216Z" fill="#BA68C8"/>
<path opacity="0.5" d="M34.5149 53.3596L33.9006 52.7453L39.0921 47.5538L39.7064 48.1681L34.5149 53.3596ZM43.4529 44.4216L42.8386 43.8073L53.6888 32.957L54.3032 33.5627L43.4529 44.4216Z" fill="white"/>
<path d="M171.657 116.099V76.9377L159.543 73.1392C159.111 71.9798 158.635 70.8377 158.133 69.6782L164.025 58.43L136.337 30.742L125.089 36.643C123.956 36.1325 122.822 35.6566 121.628 35.2153L117.83 23.1018H78.6426L74.8528 35.2153C73.6847 35.6566 72.5512 36.1325 71.3918 36.643L60.1435 30.742L32.4555 58.43L38.3565 69.6782C37.846 70.8117 37.3702 71.9452 36.9375 73.1392L24.824 76.9377V116.099L36.9375 119.889C37.3788 121.048 37.8547 122.19 38.3565 123.35L32.4555 134.598L60.1435 162.286L71.3918 156.385C72.5166 156.895 73.6501 157.371 74.8528 157.813L78.6426 169.926H117.804L121.602 157.813C122.762 157.371 123.895 156.895 125.063 156.385L136.312 162.286L163.999 134.598L158.098 123.35C158.6 122.225 159.085 121.083 159.518 119.889L171.657 116.099ZM127.382 96.5096C127.382 102.273 125.673 107.908 122.471 112.7C119.269 117.492 114.717 121.227 109.393 123.433C104.068 125.639 98.2082 126.216 92.5553 125.091C86.9023 123.967 81.7098 121.191 77.6343 117.116C73.5587 113.04 70.7833 107.848 69.6588 102.195C68.5344 96.5419 69.1115 90.6825 71.3172 85.3576C73.5228 80.0327 77.258 75.4814 82.0503 72.2792C86.8426 69.0771 92.4768 67.368 98.2405 67.368C105.969 67.3703 113.38 70.4413 118.844 75.9059C124.309 81.3705 127.38 88.7815 127.382 96.5096Z" fill="#BA68C8"/>
<path opacity="0.5" d="M171.657 116.099V76.9377L159.543 73.1392C159.111 71.9798 158.635 70.8377 158.133 69.6782L164.025 58.43L136.337 30.742L125.089 36.643C123.956 36.1325 122.822 35.6566 121.628 35.2153L117.83 23.1018H78.6426L74.8528 35.2153C73.6847 35.6566 72.5512 36.1325 71.3918 36.643L60.1435 30.742L32.4555 58.43L38.3565 69.6782C37.846 70.8117 37.3702 71.9452 36.9375 73.1392L24.824 76.9377V116.099L36.9375 119.889C37.3788 121.048 37.8547 122.19 38.3565 123.35L32.4555 134.598L60.1435 162.286L71.3918 156.385C72.5166 156.895 73.6501 157.371 74.8528 157.813L78.6426 169.926H117.804L121.602 157.813C122.762 157.371 123.895 156.895 125.063 156.385L136.312 162.286L163.999 134.598L158.098 123.35C158.6 122.225 159.085 121.083 159.518 119.889L171.657 116.099ZM127.382 96.5096C127.382 102.273 125.673 107.908 122.471 112.7C119.269 117.492 114.717 121.227 109.393 123.433C104.068 125.639 98.2082 126.216 92.5553 125.091C86.9023 123.967 81.7098 121.191 77.6343 117.116C73.5587 113.04 70.7833 107.848 69.6588 102.195C68.5344 96.5419 69.1115 90.6825 71.3172 85.3576C73.5228 80.0327 77.258 75.4814 82.0503 72.2792C86.8426 69.0771 92.4768 67.368 98.2405 67.368C105.969 67.3703 113.38 70.4413 118.844 75.9059C124.309 81.3705 127.38 88.7815 127.382 96.5096Z" fill="white"/>
<path d="M115.918 167.555H80.5721C80.5253 167.555 80.4798 167.54 80.4423 167.512C80.4049 167.484 80.3776 167.444 80.3645 167.4L76.9035 156.48C76.8862 156.425 76.8916 156.365 76.9184 156.314C76.9452 156.263 76.9911 156.225 77.0462 156.208C77.1013 156.19 77.161 156.196 77.2121 156.222C77.2632 156.249 77.3016 156.295 77.3188 156.35L80.6846 167.123H115.71L119.309 155.753C119.32 155.722 119.337 155.694 119.359 155.67C119.381 155.646 119.409 155.627 119.439 155.615L120.625 155.174C121.628 154.793 122.692 154.352 123.895 153.815L125.046 153.296C125.099 153.273 125.158 153.272 125.212 153.293C125.266 153.314 125.309 153.356 125.332 153.408C125.354 153.461 125.355 153.521 125.334 153.574C125.313 153.628 125.272 153.671 125.219 153.694L124.068 154.204C122.866 154.75 121.784 155.191 120.78 155.572L119.69 155.987L116.125 167.4C116.111 167.444 116.083 167.482 116.046 167.51C116.009 167.538 115.964 167.554 115.918 167.555ZM135.818 159.309C135.761 159.308 135.706 159.286 135.663 159.249C135.642 159.229 135.625 159.204 135.614 159.178C135.602 159.151 135.596 159.122 135.596 159.093C135.596 159.064 135.602 159.035 135.614 159.009C135.625 158.982 135.642 158.958 135.663 158.937L160.547 134.061L155.018 123.505C155.003 123.476 154.995 123.443 154.995 123.41C154.995 123.377 155.003 123.344 155.018 123.315L155.537 122.164C156.057 120.996 156.498 119.923 156.887 118.902L157.328 117.717C157.341 117.686 157.359 117.659 157.383 117.637C157.407 117.614 157.436 117.597 157.467 117.587L168.845 114.031V79.0315L157.597 75.5186C157.566 75.5141 157.536 75.5028 157.51 75.4856C157.483 75.4685 157.461 75.4458 157.445 75.4192C157.428 75.3925 157.417 75.3626 157.413 75.3315C157.41 75.3003 157.412 75.2687 157.422 75.2388C157.432 75.2089 157.447 75.1815 157.469 75.1584C157.49 75.1352 157.516 75.117 157.545 75.1049C157.574 75.0929 157.605 75.0872 157.636 75.0885C157.668 75.0897 157.699 75.0977 157.726 75.112L169.096 78.6595C169.138 78.6752 169.175 78.7034 169.202 78.7405C169.228 78.7776 169.242 78.8217 169.243 78.8671V114.213C169.244 114.258 169.23 114.303 169.203 114.34C169.177 114.378 169.139 114.406 169.096 114.42L157.701 117.968L157.294 119.058C156.904 120.088 156.429 121.161 155.927 122.346L155.46 123.402L161.006 134.001C161.033 134.037 161.048 134.081 161.048 134.126C161.048 134.172 161.033 134.216 161.006 134.252L136.017 159.249C135.964 159.293 135.896 159.315 135.827 159.309H135.818ZM60.6541 159.309C60.5967 159.308 60.5418 159.286 60.4983 159.249L35.5099 134.252C35.485 134.215 35.4717 134.171 35.4717 134.126C35.4717 134.082 35.485 134.038 35.5099 134.001L41.1081 123.306C41.1356 123.256 41.1815 123.218 41.2362 123.2C41.2909 123.183 41.3503 123.186 41.4022 123.211C41.4273 123.225 41.4494 123.243 41.4673 123.265C41.4852 123.288 41.4986 123.313 41.5066 123.34C41.5147 123.368 41.5172 123.396 41.5142 123.425C41.5111 123.453 41.5025 123.48 41.4888 123.505L35.9685 134.061L60.8444 158.937C60.8653 158.958 60.882 158.982 60.8934 159.009C60.9047 159.035 60.9106 159.064 60.9106 159.093C60.9106 159.122 60.9047 159.151 60.8934 159.178C60.882 159.204 60.8653 159.229 60.8444 159.249C60.8198 159.271 60.791 159.287 60.7598 159.298C60.7286 159.308 60.6955 159.312 60.6627 159.309H60.6541ZM75.3633 155.424H75.2854C74.4202 155.087 73.4771 154.689 72.4301 154.222C72.3995 154.214 72.3709 154.2 72.3463 154.18C72.3218 154.16 72.3019 154.135 72.288 154.107C72.2742 154.078 72.2667 154.047 72.2661 154.016C72.2656 153.984 72.2719 153.953 72.2847 153.924C72.2976 153.895 72.3165 153.869 72.3404 153.849C72.3642 153.828 72.3922 153.813 72.4226 153.804C72.4529 153.795 72.4848 153.793 72.516 153.798C72.5472 153.803 72.577 153.815 72.6032 153.832C73.6415 154.291 74.5673 154.698 75.4412 155.018C75.4681 155.028 75.4927 155.044 75.5135 155.064C75.5342 155.084 75.5508 155.108 75.5621 155.135C75.5733 155.162 75.5792 155.19 75.5792 155.219C75.5793 155.248 75.5735 155.277 75.5623 155.303C75.5441 155.344 75.5132 155.378 75.4742 155.4C75.4352 155.422 75.3903 155.43 75.346 155.424H75.3633ZM98.2578 128.481C89.7776 128.465 81.6502 125.085 75.6595 119.082C69.6687 113.08 66.3041 104.947 66.3041 96.4663C66.3041 96.409 66.3269 96.3539 66.3675 96.3134C66.4081 96.2728 66.4631 96.25 66.5205 96.25C66.5778 96.25 66.6328 96.2728 66.6734 96.3134C66.714 96.3539 66.7368 96.409 66.7368 96.4663C66.7368 102.701 68.5854 108.795 72.049 113.978C75.5126 119.162 80.4355 123.202 86.1952 125.588C91.955 127.974 98.2928 128.598 104.407 127.382C110.522 126.165 116.138 123.163 120.547 118.755C124.955 114.347 127.957 108.73 129.173 102.616C130.389 96.5013 129.765 90.1635 127.379 84.4038C124.994 78.644 120.954 73.7211 115.77 70.2575C110.586 66.7939 104.492 64.9453 98.2578 64.9453C98.2005 64.9453 98.1454 64.9225 98.1049 64.8819C98.0643 64.8413 98.0415 64.7863 98.0415 64.729C98.0415 64.6716 98.0643 64.6166 98.1049 64.576C98.1454 64.5354 98.2005 64.5126 98.2578 64.5126C106.735 64.5126 114.865 67.8801 120.859 73.8742C126.853 79.8683 130.22 87.9981 130.22 96.475C130.22 104.952 126.853 113.082 120.859 119.076C114.865 125.07 106.735 128.437 98.2578 128.437V128.481ZM39.4208 119.196C39.3757 119.195 39.3321 119.18 39.2952 119.154C39.2583 119.128 39.2299 119.091 39.2132 119.049L38.8065 117.968L27.3765 114.394C27.3332 114.38 27.2957 114.352 27.2692 114.314C27.2428 114.277 27.2289 114.232 27.2294 114.187V78.8412C27.2301 78.7958 27.2446 78.7516 27.2708 78.7146C27.2971 78.6775 27.3339 78.6492 27.3765 78.6335L38.3046 75.2244C38.3597 75.2077 38.4192 75.2127 38.4707 75.2385C38.5222 75.2642 38.5619 75.3087 38.5815 75.3629C38.5957 75.4191 38.5885 75.4785 38.5613 75.5297C38.5341 75.5808 38.4889 75.6201 38.4344 75.6398L27.6361 79.0315V114.057L39.0141 117.613C39.0446 117.623 39.0723 117.639 39.0949 117.662C39.1175 117.685 39.1343 117.712 39.1439 117.743L39.5939 118.928C39.6138 118.981 39.6123 119.04 39.5897 119.091C39.567 119.143 39.5251 119.184 39.4727 119.205L39.4208 119.196ZM39.4208 74.2034H39.3429C39.29 74.1805 39.2479 74.1381 39.2253 74.0849C39.2028 74.0317 39.2015 73.972 39.2218 73.9179C39.6371 72.8104 40.0871 71.7548 40.5629 70.6819C40.5873 70.6305 40.631 70.5908 40.6844 70.5714C40.7379 70.552 40.7968 70.5544 40.8485 70.578C40.8747 70.5893 40.8984 70.6057 40.9182 70.6262C40.9381 70.6467 40.9537 70.6709 40.9641 70.6974C40.9746 70.7239 40.9797 70.7523 40.9791 70.7808C40.9786 70.8093 40.9724 70.8375 40.961 70.8636C40.4764 71.9192 40.0438 72.9748 39.6285 74.0737C39.6133 74.1207 39.5831 74.1615 39.5424 74.1897C39.5017 74.2178 39.4529 74.2318 39.4035 74.2294L39.4208 74.2034ZM155.529 69.2629H155.425C155.4 69.2493 155.378 69.2309 155.36 69.2087C155.342 69.1866 155.329 69.1611 155.32 69.1338C155.312 69.1064 155.31 69.0778 155.313 69.0494C155.316 69.0211 155.325 68.9937 155.338 68.9687L160.53 58.9751L156.377 54.8045C156.352 54.7859 156.331 54.7622 156.317 54.735C156.302 54.7078 156.293 54.6777 156.291 54.6468C156.288 54.6159 156.293 54.5849 156.304 54.5559C156.315 54.5268 156.332 54.5005 156.353 54.4785C156.375 54.4566 156.402 54.4397 156.431 54.4288C156.46 54.418 156.491 54.4135 156.522 54.4157C156.553 54.4179 156.583 54.4267 156.61 54.4416C156.637 54.4564 156.661 54.4769 156.68 54.5017L161.006 58.8279C161.033 58.864 161.048 58.9081 161.048 58.9534C161.048 58.9987 161.033 59.0428 161.006 59.0789L155.702 69.2109C155.679 69.2387 155.65 69.2604 155.616 69.274C155.583 69.2876 155.547 69.2927 155.511 69.2888L155.529 69.2629ZM35.6656 59.1308C35.6079 59.1313 35.5521 59.1097 35.5099 59.0702C35.4722 59.0288 35.4513 58.9748 35.4513 58.9188C35.4513 58.8628 35.4722 58.8088 35.5099 58.7674L60.4724 33.7876C60.5078 33.7588 60.5521 33.7431 60.5978 33.7431C60.6435 33.7431 60.6878 33.7588 60.7233 33.7876L71.3226 39.3339L72.3782 38.8666C73.3992 38.4081 74.3337 38.0014 75.2335 37.6639C75.2602 37.6527 75.2888 37.647 75.3177 37.647C75.3466 37.6471 75.3753 37.6529 75.4019 37.6642C75.4285 37.6755 75.4526 37.692 75.4727 37.7128C75.4928 37.7335 75.5086 37.7581 75.5191 37.7851C75.5385 37.839 75.5358 37.8985 75.5115 37.9504C75.4871 38.0023 75.4432 38.0424 75.3893 38.062C74.524 38.4167 73.5722 38.8061 72.5599 39.256L71.4091 39.7751C71.379 39.788 71.3466 39.7946 71.3139 39.7946C71.2812 39.7946 71.2488 39.788 71.2188 39.7751L60.6627 34.2462L35.8214 59.1308C35.7714 59.151 35.7156 59.151 35.6656 59.1308ZM152.924 51.2397C152.867 51.2403 152.811 51.2186 152.769 51.1791L135.749 34.2029L125.193 39.7319C125.165 39.747 125.134 39.755 125.102 39.755C125.07 39.755 125.039 39.747 125.011 39.7319L123.861 39.2127C122.675 38.6849 121.602 38.2437 120.59 37.8543L119.405 37.413C119.374 37.4008 119.347 37.3821 119.324 37.3582C119.302 37.3342 119.285 37.3057 119.275 37.2746L115.719 25.9052H80.7279L77.6649 35.6912C77.657 35.7183 77.6438 35.7436 77.6258 35.7654C77.6079 35.7873 77.5857 35.8052 77.5606 35.8182C77.5355 35.8311 77.508 35.8388 77.4798 35.8408C77.4516 35.8428 77.4233 35.839 77.3966 35.8296C77.3432 35.8118 77.2988 35.7737 77.2729 35.7236C77.247 35.6735 77.2418 35.6153 77.2582 35.5614L80.3731 25.6283C80.3877 25.585 80.4157 25.5474 80.453 25.521C80.4903 25.4946 80.5351 25.4806 80.5808 25.4812H115.926C115.972 25.4819 116.016 25.4963 116.053 25.5226C116.09 25.5488 116.118 25.5857 116.134 25.6283L119.699 37.0496L120.789 37.4649C121.81 37.8456 122.883 38.3302 124.077 38.832L125.132 39.2993L135.749 33.753C135.785 33.7256 135.829 33.7108 135.875 33.7108C135.92 33.7108 135.964 33.7256 136 33.753L153.054 50.885C153.075 50.9051 153.092 50.9293 153.103 50.9561C153.114 50.9828 153.12 51.0116 153.12 51.0407C153.12 51.0698 153.114 51.0986 153.103 51.1253C153.092 51.1521 153.075 51.1763 153.054 51.1965C153.019 51.2302 152.973 51.2515 152.924 51.257V51.2397Z" fill="#FAFAFA"/>
<path d="M222.568 103.596C225.276 107.057 227.812 110.518 230.286 114.091C232.761 117.665 235.114 121.316 237.338 125.123C237.9 126.066 238.437 127.053 238.982 128.022C239.769 129.49 240.232 131.11 240.34 132.772C240.482 135.295 240.237 137.825 239.614 140.274C238.537 144.677 236.903 148.925 234.751 152.915L230.295 151.185C231.18 147.19 231.818 143.144 232.207 139.071C232.379 137.312 232.321 135.537 232.034 133.793C231.963 133.309 231.783 132.847 231.506 132.443C230.935 131.578 230.381 130.713 229.776 129.848C227.431 126.387 224.948 123.004 222.447 119.603L214.928 109.41L222.568 103.596Z" fill="#FF8B7B"/>
<path d="M229.984 150.683L227.682 154.801L235.711 155.987C235.711 155.987 236.577 152.526 234.561 150.138L229.984 150.683Z" fill="#FF8B7B"/>
<path d="M226.471 160.278L233.159 160.953L235.711 155.987L227.682 154.801L226.471 160.278Z" fill="#FF8B7B"/>
<path d="M248.232 184.852L250.62 172.141C250.897 170.667 251.748 169.362 252.985 168.514C254.223 167.666 255.746 167.343 257.222 167.616L277.269 171.371C276.073 167.366 273.946 163.7 271.062 160.674C268.178 157.648 264.619 155.347 260.676 153.96C256.733 152.573 252.517 152.138 248.374 152.692C244.23 153.246 240.277 154.772 236.836 157.146L145.881 103.31C146.354 97.6186 144.974 91.9264 141.948 87.0823C138.923 82.2383 134.412 78.5017 129.09 76.4296C123.768 74.3575 117.918 74.0608 112.414 75.5837C106.909 77.1066 102.044 80.3676 98.5433 84.8806L118.591 88.6358C120.064 88.9192 121.365 89.7729 122.211 91.0111C123.057 92.2492 123.379 93.7715 123.108 95.2463L120.72 107.965C120.44 109.439 119.589 110.742 118.352 111.59C117.115 112.438 115.593 112.762 114.118 112.491L94.07 108.727C95.2712 112.757 97.4144 116.443 100.322 119.48C103.23 122.518 106.819 124.819 110.793 126.195C114.767 127.57 119.011 127.98 123.174 127.391C127.338 126.801 131.301 125.229 134.737 122.805L225.51 176.537C224.987 182.241 226.326 187.961 229.327 192.839C232.328 197.718 236.829 201.493 242.156 203.598C247.483 205.703 253.349 206.025 258.875 204.516C264.4 203.006 269.288 199.747 272.805 195.226L252.757 191.462C251.283 191.181 249.98 190.328 249.132 189.089C248.284 187.851 247.961 186.328 248.232 184.852Z" fill="#BA68C8"/>
<path d="M225.578 156.819L151.833 113.171C150.492 112.378 148.762 112.821 147.969 114.162L144.963 119.24C144.17 120.581 144.613 122.311 145.954 123.104L219.699 166.752C221.04 167.546 222.77 167.102 223.563 165.761L226.569 160.683C227.362 159.343 226.919 157.613 225.578 156.819Z" fill="#BA68C8"/>
<path opacity="0.2" d="M225.578 156.819L151.833 113.171C150.492 112.378 148.762 112.821 147.969 114.162L144.963 119.24C144.17 120.581 144.613 122.311 145.954 123.104L219.699 166.752C221.04 167.546 222.77 167.102 223.563 165.761L226.569 160.683C227.362 159.343 226.919 157.613 225.578 156.819Z" fill="white"/>
<path d="M191.765 76.704C191.679 77.2145 191.35 77.5693 191.021 77.5693C190.692 77.5693 190.485 77.0588 190.563 76.5569C190.641 76.0551 190.978 75.6917 191.307 75.7349C191.636 75.7782 191.843 76.2022 191.765 76.704Z" fill="#263238"/>
<path d="M191.393 77.5864C190.547 79.0402 189.505 80.3707 188.296 81.5406C188.601 81.8474 188.97 82.0837 189.377 82.2332C189.783 82.3826 190.218 82.4415 190.649 82.4059L191.393 77.5864Z" fill="#FF5652"/>
<path d="M194.041 74.1861C194.002 74.1865 193.964 74.179 193.928 74.1641C193.893 74.1492 193.86 74.1273 193.833 74.0995C193.573 73.8256 193.251 73.6176 192.895 73.4927C192.538 73.3679 192.157 73.3297 191.783 73.3814C191.743 73.3903 191.703 73.3913 191.663 73.3843C191.624 73.3773 191.586 73.3625 191.552 73.3408C191.518 73.319 191.489 73.2908 191.466 73.2576C191.443 73.2245 191.427 73.1871 191.419 73.1478C191.41 73.1091 191.409 73.069 191.417 73.03C191.424 72.9909 191.439 72.9537 191.46 72.9205C191.482 72.8874 191.51 72.859 191.544 72.8371C191.577 72.8152 191.614 72.8002 191.653 72.793C192.123 72.7184 192.605 72.7581 193.056 72.9086C193.508 73.0592 193.917 73.3164 194.249 73.6583C194.303 73.7173 194.333 73.7945 194.333 73.8746C194.333 73.9547 194.303 74.0318 194.249 74.0909C194.193 74.1458 194.119 74.1794 194.041 74.1861Z" fill="#263238"/>
<path d="M208.664 82.2847C207.798 86.9397 206.847 95.4624 210.1 98.56C210.1 98.56 208.828 103.276 200.184 103.276C190.667 103.276 195.642 98.56 195.642 98.56C200.833 97.3227 200.695 93.4724 199.795 89.9075L208.664 82.2847Z" fill="#FF8B7B"/>
<path d="M214.487 102.056C214.382 101.903 214.303 101.733 214.253 101.554C213.526 98.7938 210.472 96.6393 206.509 96.5268C202.33 96.423 197.614 96.9249 194.828 99.2264C193.6 100.239 194.958 101.718 194.958 101.718L214.487 102.056Z" fill="#BA68C8"/>
<path opacity="0.5" d="M214.487 102.056C214.382 101.903 214.303 101.733 214.253 101.554C213.526 98.7938 210.472 96.6393 206.509 96.5268C202.33 96.423 197.614 96.9249 194.828 99.2264C193.6 100.239 194.958 101.718 194.958 101.718L214.487 102.056Z" fill="white"/>
<path d="M245.039 276.161H244.978C244.851 276.144 244.733 276.087 244.639 275.998C244.546 275.91 244.483 275.794 244.459 275.668C244.429 275.57 244.42 275.467 244.434 275.365C244.447 275.264 244.482 275.166 244.537 275.08C245.022 274.258 247.133 273.825 247.193 273.808C247.222 273.802 247.252 273.805 247.28 273.816C247.308 273.826 247.332 273.845 247.349 273.868C247.363 273.893 247.371 273.922 247.371 273.951C247.371 273.98 247.363 274.008 247.349 274.033C247.029 274.578 245.844 276.161 245.039 276.161ZM246.899 274.18C246.207 274.362 245.082 274.734 244.797 275.227C244.769 275.279 244.755 275.337 244.755 275.396C244.755 275.454 244.769 275.512 244.797 275.564C244.874 275.833 245.013 275.85 245.047 275.859C245.437 275.91 246.354 274.976 246.899 274.18Z" fill="#BA68C8"/>
<path d="M246.19 274.214C245.402 274.214 244.52 274.067 244.251 273.687C244.188 273.592 244.159 273.479 244.168 273.366C244.178 273.253 244.225 273.146 244.303 273.064C244.373 272.973 244.461 272.898 244.56 272.841C244.66 272.785 244.769 272.749 244.883 272.735C245.835 272.631 247.262 273.782 247.323 273.834C247.345 273.85 247.362 273.873 247.372 273.899C247.381 273.925 247.384 273.953 247.378 273.98C247.373 274.007 247.36 274.032 247.341 274.052C247.322 274.072 247.298 274.086 247.271 274.093C246.918 274.183 246.554 274.223 246.19 274.214ZM245.03 273.029H244.918C244.844 273.034 244.772 273.055 244.708 273.091C244.644 273.127 244.588 273.177 244.546 273.237C244.424 273.392 244.476 273.47 244.502 273.496C244.745 273.851 246.068 273.99 246.873 273.86C246.34 273.43 245.705 273.144 245.03 273.029Z" fill="#BA68C8"/>
<path d="M182.196 297.17C181.382 297.17 180.595 297.057 180.327 296.694C180.259 296.598 180.223 296.483 180.223 296.365C180.223 296.247 180.259 296.133 180.327 296.036C180.38 295.948 180.45 295.871 180.533 295.81C180.616 295.749 180.711 295.705 180.811 295.682C181.867 295.396 184.091 296.659 184.186 296.72C184.212 296.735 184.233 296.759 184.245 296.787C184.258 296.815 184.261 296.846 184.255 296.876C184.249 296.905 184.234 296.933 184.213 296.954C184.191 296.976 184.164 296.991 184.134 296.997C183.494 297.109 182.845 297.167 182.196 297.17ZM181.183 295.941C181.089 295.927 180.992 295.927 180.898 295.941C180.837 295.953 180.779 295.978 180.729 296.014C180.678 296.049 180.635 296.095 180.604 296.149C180.491 296.339 180.534 296.434 180.604 296.486C180.898 296.893 182.507 296.902 183.693 296.737C182.916 296.311 182.064 296.041 181.183 295.941Z" fill="#BA68C8"/>
<path d="M184.117 296.997H184.056C183.286 296.65 181.763 295.266 181.884 294.557C181.884 294.384 182.031 294.176 182.447 294.133C182.601 294.114 182.758 294.127 182.906 294.172C183.055 294.216 183.193 294.291 183.312 294.392C184.125 295.058 184.29 296.772 184.298 296.841C184.302 296.867 184.298 296.894 184.287 296.918C184.276 296.943 184.259 296.964 184.238 296.979C184.201 297 184.158 297.007 184.117 296.997ZM182.568 294.401H182.473C182.204 294.401 182.187 294.531 182.178 294.565C182.109 294.998 183.147 296.079 183.909 296.547C183.83 295.821 183.527 295.138 183.044 294.591C182.908 294.483 182.741 294.422 182.568 294.418V294.401Z" fill="#BA68C8"/>
<path d="M191.108 296.85H184.748L184.117 282.132H190.476L191.108 296.85Z" fill="#FF8B7B"/>
<path d="M252.913 269.429L247.756 273.15L235.59 263.771L240.747 260.059L252.913 269.429Z" fill="#FF8B7B"/>
<path d="M247.02 273.098L251.97 267.907C252.056 267.816 252.171 267.758 252.296 267.742C252.42 267.726 252.547 267.754 252.653 267.82L257.602 270.823C257.721 270.898 257.821 270.998 257.896 271.117C257.971 271.235 258.018 271.369 258.035 271.508C258.051 271.648 258.037 271.789 257.992 271.922C257.947 272.054 257.873 272.176 257.775 272.276C256.045 274.05 255.067 274.82 252.895 277.087C251.554 278.48 247.92 283.377 246.068 285.307C244.217 287.236 242.08 285.653 242.659 284.701C245.255 280.427 246.518 276.187 246.588 274.076C246.613 273.709 246.766 273.363 247.02 273.098Z" fill="#263238"/>
<path d="M184.791 296.114H191.713C191.84 296.113 191.963 296.155 192.062 296.234C192.162 296.313 192.231 296.423 192.259 296.547L193.513 302.197C193.543 302.333 193.542 302.474 193.51 302.61C193.477 302.746 193.415 302.873 193.327 302.981C193.238 303.089 193.127 303.176 193 303.235C192.874 303.294 192.736 303.324 192.596 303.322C190.095 303.322 186.479 303.14 183.329 303.14C179.643 303.14 176.468 303.339 172.15 303.339C169.554 303.339 168.819 300.7 169.909 300.458C174.884 299.376 178.942 299.255 183.243 296.607C183.703 296.301 184.239 296.13 184.791 296.114Z" fill="#263238"/>
<path d="M213.674 111.98C214.539 113.581 215.517 115.13 216.46 116.575C218.086 119.075 219.661 121.238 220.786 122.727C221.798 124.068 222.447 124.855 222.447 124.855L235.253 116.125C235.253 116.125 227.466 100.965 221.469 99.9964C215.3 99.0187 209.65 104.799 213.674 111.98Z" fill="#BA68C8"/>
<path opacity="0.5" d="M213.674 111.98C214.539 113.581 215.517 115.13 216.46 116.575C218.086 119.075 219.661 121.238 220.786 122.727C221.798 124.068 222.447 124.855 222.447 124.855L235.253 116.125C235.253 116.125 227.466 100.965 221.469 99.9964C215.3 99.0187 209.65 104.799 213.674 111.98Z" fill="black"/>
<path d="M216.46 116.575C218.086 119.075 219.661 121.238 220.786 122.727C220.656 119.75 220.042 114.939 217.732 111.271C216.892 112.101 216.555 114.247 216.46 116.575Z" fill="#BA68C8"/>
<path opacity="0.6" d="M216.46 116.575C218.086 119.075 219.661 121.238 220.786 122.727C220.656 119.75 220.042 114.939 217.732 111.271C216.892 112.101 216.555 114.247 216.46 116.575Z" fill="black"/>
<path d="M182.741 121.048C182.741 123.211 182.793 125.591 182.914 128.212C183.225 135.342 184.004 144.228 185.51 155.269H219.505C219.739 150.077 216.46 124.587 221.495 99.9964C217.735 99.2732 213.931 98.7934 210.109 98.5601C205.296 98.283 200.472 98.283 195.659 98.5601C192.36 98.8862 189.092 99.4647 185.882 100.291C185.882 100.291 182.732 103.864 182.741 121.048Z" fill="#BA68C8"/>
<path opacity="0.5" d="M182.741 121.048C182.741 123.211 182.793 125.591 182.914 128.212C183.225 135.342 184.004 144.228 185.51 155.269H219.505C219.739 150.077 216.46 124.587 221.495 99.9964C217.735 99.2732 213.931 98.7934 210.109 98.5601C205.296 98.283 200.472 98.283 195.659 98.5601C192.36 98.8862 189.092 99.4647 185.882 100.291C185.882 100.291 182.732 103.864 182.741 121.048Z" fill="black"/>
<path d="M182.741 121.048C182.741 123.211 182.793 125.591 182.914 128.212C186.903 124.319 187.171 116.367 187.171 116.367L182.741 121.048Z" fill="#BA68C8"/>
<path opacity="0.6" d="M182.741 121.048C182.741 123.211 182.793 125.591 182.914 128.212C186.903 124.319 187.171 116.367 187.171 116.367L182.741 121.048Z" fill="black"/>
<path d="M189.827 111.176C189.173 112.27 188.451 113.322 187.664 114.325C186.946 115.26 186.228 116.142 185.492 117.016C184.03 118.747 182.464 120.416 180.872 122.034C177.61 125.346 173.998 128.294 170.099 130.825C169.05 131.482 167.967 132.083 166.855 132.625L166.414 132.833L166.197 132.937L165.929 133.049C165.502 133.23 165.062 133.38 164.614 133.499L163.982 133.663L163.376 133.767C162.99 133.834 162.6 133.878 162.208 133.897C159.604 133.983 157.004 133.617 154.525 132.815C150.142 131.452 145.965 129.499 142.109 127.01L144.159 122.683C148.094 123.861 152.103 124.775 156.16 125.418C157.877 125.706 159.628 125.729 161.352 125.487C161.499 125.463 161.644 125.425 161.784 125.374L161.975 125.322L162.113 125.262C162.226 125.262 162.252 125.175 162.321 125.149L162.84 124.847C163.637 124.383 164.408 123.878 165.15 123.332C168.343 120.93 171.312 118.242 174.019 115.303C175.429 113.823 176.788 112.274 178.112 110.734C178.769 109.956 179.41 109.177 180.007 108.389C180.604 107.602 181.218 106.797 181.573 106.244L189.827 111.176Z" fill="#FF8B7B"/>
<path d="M145.094 123.851L140.871 118.833L137.999 126.17C137.999 126.17 141.641 127.901 144.479 126.897L145.094 123.851Z" fill="#FF8B7B"/>
<path d="M134.676 117.734L133.5 123.592L137.999 126.162L140.871 118.824L134.676 117.734Z" fill="#FF8B7B"/>
<path d="M194.924 107.732C194.171 113.788 180.431 126.551 180.431 126.551L168.057 116.739C171.168 112.142 174.803 107.922 178.89 104.167C187.854 96.3969 195.832 100.498 194.924 107.732Z" fill="#BA68C8"/>
<path opacity="0.5" d="M194.924 107.732C194.171 113.788 180.431 126.551 180.431 126.551L168.057 116.739C171.168 112.142 174.803 107.922 178.89 104.167C187.854 96.3969 195.832 100.498 194.924 107.732Z" fill="black"/>
<path d="M184.203 148.615C196.55 148.615 199.371 134.65 200.02 128.654C198.461 118.513 194.848 108.797 189.403 100.101C189.336 99.9942 189.296 99.873 189.287 99.7476C189.277 99.6222 189.299 99.4964 189.349 99.3811C189.399 99.2659 189.477 99.1648 189.576 99.0865C189.674 99.0083 189.79 98.9554 189.914 98.9324L192.622 98.4306C192.776 98.4053 192.934 98.4253 193.077 98.4883C193.22 98.5513 193.341 98.6545 193.427 98.7853C200.859 110.683 203.291 120.771 204.078 125.963H206.293C208.56 121.031 213.552 109.791 213.146 99.2612C213.138 99.1483 213.156 99.0351 213.198 98.9299C213.239 98.8247 213.304 98.7301 213.387 98.653C213.47 98.576 213.569 98.5183 213.677 98.4843C213.785 98.4504 213.899 98.4408 214.011 98.4565L216.918 98.7421C217.105 98.7547 217.281 98.8358 217.412 98.9699C217.543 99.104 217.62 99.2816 217.628 99.4689C218.052 109.618 212.315 123.696 210.109 128.169C210.861 144.73 220.076 147.594 220.076 147.594C220.303 151.712 220.121 155.842 219.531 159.924C200.02 163.091 190.294 161.161 184.731 158.86C185.164 154.698 184.385 151.782 184.203 148.615Z" fill="#BA68C8"/>
<path opacity="0.3" d="M184.203 148.615C196.55 148.615 199.371 134.65 200.02 128.654C198.461 118.513 194.848 108.797 189.403 100.101C189.336 99.9942 189.296 99.873 189.287 99.7476C189.277 99.6222 189.299 99.4964 189.349 99.3811C189.399 99.2659 189.477 99.1648 189.576 99.0865C189.674 99.0083 189.79 98.9554 189.914 98.9324L192.622 98.4306C192.776 98.4053 192.934 98.4253 193.077 98.4883C193.22 98.5513 193.341 98.6545 193.427 98.7853C200.859 110.683 203.291 120.771 204.078 125.963H206.293C208.56 121.031 213.552 109.791 213.146 99.2612C213.138 99.1483 213.156 99.0351 213.198 98.9299C213.239 98.8247 213.304 98.7301 213.387 98.653C213.47 98.576 213.569 98.5183 213.677 98.4843C213.785 98.4504 213.899 98.4408 214.011 98.4565L216.918 98.7421C217.105 98.7547 217.281 98.8358 217.412 98.9699C217.543 99.104 217.62 99.2816 217.628 99.4689C218.052 109.618 212.315 123.696 210.109 128.169C210.861 144.73 220.076 147.594 220.076 147.594C220.303 151.712 220.121 155.842 219.531 159.924C200.02 163.091 190.294 161.161 184.731 158.86C185.164 154.698 184.385 151.782 184.203 148.615Z" fill="black"/>
<path d="M184.117 282.132L184.445 289.72H190.805L190.476 282.132H184.117Z" fill="#FF5652"/>
<path d="M240.756 260.059L235.599 263.779L241.872 268.608L247.029 264.887L240.756 260.059Z" fill="#FF5652"/>
<path d="M208.828 78.2787C207.47 84.4393 206.985 88.1166 203.342 90.8161C197.865 94.8828 190.632 90.8162 190.121 84.3873C189.663 78.5902 191.956 69.4877 198.437 67.9476C199.863 67.6175 201.35 67.6548 202.758 68.056C204.166 68.4571 205.449 69.209 206.487 70.2413C207.526 71.2735 208.285 72.5523 208.695 73.958C209.104 75.3638 209.15 76.8504 208.828 78.2787Z" fill="#FF8B7B"/>
<path d="M214.322 68.7176C219.73 68.8647 217.506 71.7113 214.798 73.2775C214.798 73.2775 217.922 74.7743 216.312 78.3478C213.872 83.7729 209.2 89.7345 204.433 89.4057C198.497 88.999 196.81 82.5443 197.026 76.176C193.894 73.2255 193.366 71.5989 192.881 68.0513C191.904 61.0169 196.317 57.1492 214.322 68.7176Z" fill="#263238"/>
<path d="M207.357 56.8638C211.059 57.8134 214.233 60.1944 216.18 63.4833C218.127 66.7723 218.688 70.6998 217.74 74.4024L189.801 67.2727C190.27 65.436 191.095 63.7095 192.231 62.1921C193.367 60.6747 194.791 59.3961 196.422 58.4294C198.052 57.4627 199.857 56.8268 201.734 56.5582C203.61 56.2895 205.521 56.3934 207.357 56.8638Z" fill="#BA68C8"/>
<path opacity="0.5" d="M207.357 56.8638C211.059 57.8134 214.233 60.1944 216.18 63.4833C218.127 66.7723 218.688 70.6998 217.74 74.4024L189.801 67.2727C190.27 65.436 191.095 63.7095 192.231 62.1921C193.367 60.6747 194.791 59.3961 196.422 58.4294C198.052 57.4627 199.857 56.8268 201.734 56.5582C203.61 56.2895 205.521 56.3934 207.357 56.8638Z" fill="white"/>
<path d="M212.878 74.4197C212.684 74.4225 212.493 74.3804 212.319 74.2966C212.145 74.2128 211.993 74.0897 211.874 73.937C211.756 73.7842 211.675 73.606 211.637 73.4165C211.6 73.227 211.607 73.0313 211.658 72.845C212.046 71.2735 212.1 69.6379 211.815 68.0444C211.53 66.4509 210.914 64.9351 210.005 63.5954C208.061 60.67 205.086 58.5847 201.673 57.755C201.348 57.6724 201.069 57.4642 200.898 57.1761C200.727 56.8881 200.677 56.5439 200.76 56.2192C200.842 55.8945 201.051 55.6159 201.339 55.4447C201.627 55.2735 201.971 55.2237 202.296 55.3063C206.323 56.2959 209.83 58.7676 212.116 62.2283C213.217 63.8594 213.963 65.7034 214.306 67.6411C214.649 69.5788 214.581 71.5669 214.106 73.4766C214.035 73.7479 213.876 73.9878 213.653 74.1586C213.431 74.3293 213.158 74.4212 212.878 74.4197Z" fill="#BA68C8"/>
<path opacity="0.3" d="M212.878 74.4197C212.684 74.4225 212.493 74.3804 212.319 74.2966C212.145 74.2128 211.993 74.0897 211.874 73.937C211.756 73.7842 211.675 73.606 211.637 73.4165C211.6 73.227 211.607 73.0313 211.658 72.845C212.046 71.2735 212.1 69.6379 211.815 68.0444C211.53 66.4509 210.914 64.9351 210.005 63.5954C208.061 60.67 205.086 58.5847 201.673 57.755C201.348 57.6724 201.069 57.4642 200.898 57.1761C200.727 56.8881 200.677 56.5439 200.76 56.2192C200.842 55.8945 201.051 55.6159 201.339 55.4447C201.627 55.2735 201.971 55.2237 202.296 55.3063C206.323 56.2959 209.83 58.7676 212.116 62.2283C213.217 63.8594 213.963 65.7034 214.306 67.6411C214.649 69.5788 214.581 71.5669 214.106 73.4766C214.035 73.7479 213.876 73.9878 213.653 74.1586C213.431 74.3293 213.158 74.4212 212.878 74.4197Z" fill="white"/>
<path d="M185.934 67.6447L218.813 76.0376C219.155 76.1243 219.517 76.0718 219.821 75.8918C220.124 75.7118 220.343 75.4188 220.431 75.0772C220.518 74.7342 220.466 74.3708 220.286 74.0661C220.106 73.7614 219.813 73.5401 219.471 73.4505L186.591 65.0576C186.247 64.971 185.883 65.0244 185.578 65.206C185.273 65.3877 185.052 65.6828 184.965 66.0267C184.922 66.1966 184.913 66.3732 184.938 66.5465C184.964 66.7198 185.024 66.8864 185.114 67.0366C185.204 67.1869 185.322 67.318 185.463 67.4223C185.604 67.5267 185.764 67.6022 185.934 67.6447Z" fill="#BA68C8"/>
<path opacity="0.3" d="M185.934 67.6447L218.813 76.0376C219.155 76.1243 219.517 76.0718 219.821 75.8918C220.124 75.7118 220.343 75.4188 220.431 75.0772C220.518 74.7342 220.466 74.3708 220.286 74.0661C220.106 73.7614 219.813 73.5401 219.471 73.4505L186.591 65.0576C186.247 64.971 185.883 65.0244 185.578 65.206C185.273 65.3877 185.052 65.6828 184.965 66.0267C184.922 66.1966 184.913 66.3732 184.938 66.5465C184.964 66.7198 185.024 66.8864 185.114 67.0366C185.204 67.1869 185.322 67.318 185.463 67.4223C185.604 67.5267 185.764 67.6022 185.934 67.6447Z" fill="white"/>
<path d="M200.271 77.6991C200.109 79.2583 199.434 80.7195 198.35 81.8523C196.914 83.3319 195.495 82.3368 195.313 80.4679C195.149 78.7893 195.702 75.9945 197.424 75.2158C199.146 74.4371 200.453 75.8215 200.271 77.6991Z" fill="#FF8B7B"/>
<path d="M197.554 155.269C197.554 155.269 196.818 200.504 202.503 218.241C211.51 246.336 238.714 269.092 238.714 269.092L248.439 262.075C248.439 262.075 225.787 242.849 221.634 219.202C217.905 197.943 219.488 172.651 219.488 155.286L197.554 155.269Z" fill="#BA68C8"/>
<path opacity="0.3" d="M197.554 155.269C197.554 155.269 196.818 200.504 202.503 218.241C211.51 246.336 238.714 269.092 238.714 269.092L248.439 262.075C248.439 262.075 225.787 242.849 221.634 219.202C217.905 197.943 219.488 172.651 219.488 155.286L197.554 155.269Z" fill="black"/>
<path d="M203.896 163.039C205.099 171.189 200.851 193.885 199.38 201.317C197.839 187.421 197.554 170.938 197.528 161.94C200.643 159.829 203.342 159.284 203.896 163.039Z" fill="#BA68C8"/>
<path opacity="0.4" d="M203.896 163.039C205.099 171.189 200.851 193.885 199.38 201.317C197.839 187.421 197.554 170.938 197.528 161.94C200.643 159.829 203.342 159.284 203.896 163.039Z" fill="black"/>
<path d="M234.552 267.042C234.509 267.042 238.55 269.421 238.55 269.421L249.166 261.755L245.636 259.047L234.552 267.042Z" fill="#BA68C8"/>
<path opacity="0.4" d="M234.552 267.042C234.509 267.042 238.55 269.421 238.55 269.421L249.166 261.755L245.636 259.047L234.552 267.042Z" fill="white"/>
<path d="M185.492 155.269C185.492 155.269 175.914 195.849 175.239 215.23C174.486 236.974 182.075 288.249 182.075 288.249H192.856C192.856 288.249 194.188 236.576 194.664 216.771C195.183 195.183 207.859 155.269 207.859 155.269H185.492Z" fill="#BA68C8"/>
<path opacity="0.3" d="M185.492 155.269C185.492 155.269 175.914 195.849 175.239 215.23C174.486 236.974 182.075 288.249 182.075 288.249H192.856C192.856 288.249 194.188 236.576 194.664 216.771C195.183 195.183 207.859 155.269 207.859 155.269H185.492Z" fill="black"/>
<path d="M179.998 283.957C179.955 283.957 180.612 288.43 180.612 288.43H193.721L194.076 284.442L179.998 283.957Z" fill="#BA68C8"/>
<path opacity="0.4" d="M179.998 283.957C179.955 283.957 180.612 288.43 180.612 288.43H193.721L194.076 284.442L179.998 283.957Z" fill="white"/>
</svg>
