<svg width="340" height="281" viewBox="0 0 340 281" fill="none" xmlns="http://www.w3.org/2000/svg">
<path d="M340 5.52795H44.6654V256.762H340V5.52795Z" fill="#E0E0E0"/>
<path d="M334.639 27.021H39.3049V256.762H334.639V27.021Z" fill="#F5F5F5"/>
<path d="M290.948 65.6273H78.6655V218.155H290.948V65.6273Z" fill="white"/>
<path d="M0.352318 256.753H39.3049L39.3049 27.0119H0.352318L0.352318 256.753Z" fill="#F0F0F0"/>
<path d="M0.352318 41.6451L39.3049 41.6451V27.021L0.352318 27.021V41.6451Z" fill="#EBEBEB"/>
<path d="M0.352478 27.0116L334.64 27.0116V5.51872L0.352478 5.51872V27.0116Z" fill="#E6E6E6"/>
<path d="M39.3049 35.9673L129.267 35.9673V27.0119L39.3049 27.0119V35.9673Z" fill="#FAFAFA"/>
<path d="M219.229 27.021H129.267V35.9764H219.229V27.021Z" fill="#EBEBEB"/>
<path d="M16.9073 44.6273H3.27386V57.7917H16.9073V44.6273Z" fill="#E6E6E6"/>
<path d="M36.3835 44.6273H22.7501V57.7917H36.3835V44.6273Z" fill="#E6E6E6"/>
<path d="M22.7501 76.6067H36.3835V63.4423H22.7501V76.6067Z" fill="#E6E6E6"/>
<path d="M3.2739 76.6067H16.9073V63.4423H3.2739L3.2739 76.6067Z" fill="#E6E6E6"/>
<path d="M16.9073 82.2396H3.27386V95.404H16.9073V82.2396Z" fill="#E6E6E6"/>
<path d="M36.3835 82.2396H22.7501V95.404H36.3835V82.2396Z" fill="#E6E6E6"/>
<path d="M22.7501 114.219H36.3835V101.055H22.7501V114.219Z" fill="#E6E6E6"/>
<path d="M3.2739 114.219H16.9073V101.055H3.2739L3.2739 114.219Z" fill="#E6E6E6"/>
<path d="M16.9073 119.852H3.27386V133.017H16.9073V119.852Z" fill="#E6E6E6"/>
<path d="M36.3835 119.852H22.7501V133.017H36.3835V119.852Z" fill="#E6E6E6"/>
<path d="M22.7501 151.832H36.3835V138.667H22.7501V151.832Z" fill="#E6E6E6"/>
<path d="M3.2739 151.832H16.9073V138.667H3.2739L3.2739 151.832Z" fill="#E6E6E6"/>
<path d="M3.27375 203.146H11.63L11.63 195.077H3.27375L3.27375 203.146Z" fill="#E6E6E6"/>
<path d="M28.0272 203.146H36.3835V195.077H28.0272V203.146Z" fill="#E6E6E6"/>
<path d="M15.6458 203.146H24.0021V195.077H15.6458L15.6458 203.146Z" fill="#E6E6E6"/>
<path d="M16.0354 189.354H36.3V169.787H16.0354L16.0354 189.354Z" fill="#E6E6E6"/>
<path d="M3.27367 177.041H23.5383L23.5383 157.474H3.27367L3.27367 177.041Z" fill="white"/>
<path d="M264.384 122.056C267.393 104.154 254.803 87.2853 236.263 84.3794C217.723 81.4734 200.254 93.6304 197.244 111.533C194.235 129.435 206.825 146.303 225.365 149.209C243.905 152.115 261.375 139.958 264.384 122.056Z" fill="#F5F5F5"/>
<path d="M241.96 195.086V138.667H219.637V195.086H241.96Z" fill="#F5F5F5"/>
<path d="M202.471 157.391L173.769 183.34C173.769 183.34 156.06 165.408 132.605 167.433C123.938 150.244 114.033 113.621 111.292 103.176L150.427 138.507C149.721 139.667 149.502 141.018 149.811 142.312C150.12 143.606 150.936 144.756 152.109 145.551C153.281 146.345 154.732 146.731 156.195 146.638C157.657 146.544 159.033 145.977 160.07 145.041C161.107 144.105 161.734 142.863 161.838 141.543C161.942 140.222 161.514 138.912 160.634 137.854C159.754 136.795 158.48 136.059 157.047 135.78C155.614 135.501 154.117 135.698 152.832 136.335L113.698 101.005C125.278 103.469 165.843 112.412 184.883 120.246C182.609 141.402 202.471 157.391 202.471 157.391Z" fill="#BA68C8"/>
<path opacity="0.2" d="M184.842 120.246C165.813 112.412 125.237 103.469 113.657 101.005L152.792 136.335C154.067 135.706 155.551 135.512 156.971 135.791C158.391 136.069 159.652 136.801 160.523 137.851C161.394 138.901 161.817 140.2 161.713 141.509C161.609 142.818 160.985 144.049 159.957 144.976L188.09 170.365L202.471 157.391C202.471 157.391 182.609 141.402 184.842 120.246Z" fill="black"/>
<path d="M281.754 254.936C279.32 257.124 276.025 258.352 272.59 258.352C269.155 258.352 265.86 257.124 263.425 254.936L179.189 178.887L197.518 162.33L281.754 238.379C284.178 240.579 285.539 243.555 285.539 246.658C285.539 249.76 284.178 252.737 281.754 254.936Z" fill="#BA68C8"/>
<path opacity="0.7" d="M281.754 254.936C279.32 257.124 276.025 258.352 272.59 258.352C269.155 258.352 265.86 257.124 263.425 254.936L179.189 178.887L197.518 162.33L281.754 238.379C284.178 240.579 285.539 243.555 285.539 246.658C285.539 249.76 284.178 252.737 281.754 254.936Z" fill="white"/>
<path d="M198.362 161.501L178.268 179.642C177.106 180.69 177.106 182.39 178.268 183.438L183.349 188.025C184.51 189.074 186.393 189.074 187.554 188.025L207.648 169.884C208.809 168.836 208.809 167.136 207.648 166.088L202.567 161.501C201.406 160.452 199.523 160.452 198.362 161.501Z" fill="#BA68C8"/>
<path d="M197.453 153.138L169.013 178.814C167.618 180.073 167.618 182.115 169.013 183.375L173.685 187.592C175.08 188.852 177.342 188.852 178.737 187.592L207.177 161.916C208.572 160.657 208.572 158.615 207.177 157.355L202.505 153.138C201.11 151.878 198.848 151.878 197.453 153.138Z" fill="#BA68C8"/>
<path opacity="0.4" d="M197.453 153.138L169.013 178.814C167.618 180.073 167.618 182.115 169.013 183.375L173.685 187.592C175.08 188.852 177.342 188.852 178.737 187.592L207.177 161.916C208.572 160.657 208.572 158.615 207.177 157.355L202.505 153.138C201.11 151.878 198.848 151.878 197.453 153.138Z" fill="black"/>
<path d="M177.115 171.499L173.024 175.192L182.749 183.971L186.839 180.278L177.115 171.499Z" fill="white"/>
<path d="M189.603 177.807L191.283 176.291L181.559 167.512L179.879 169.028L189.603 177.807Z" fill="white"/>
<path d="M104.635 266.756C52.185 219.413 52.185 142.374 104.635 95.0214C157.085 47.6691 242.417 47.6691 294.857 95.0214L293.304 96.4233C241.717 49.8498 157.775 49.8498 106.188 96.4233C54.6004 142.997 54.6004 218.781 106.188 265.354L104.635 266.756Z" fill="#BA68C8"/>
<path d="M198.957 9.86098L10.2896 180.192L11.8469 181.598L200.514 11.2669L198.957 9.86098Z" fill="#BA68C8"/>
<path d="M105.406 83.008L91.3111 95.7327L105.406 108.457L119.5 95.7327L105.406 83.008Z" fill="white"/>
<path d="M105.406 109.837L89.7564 95.727L105.406 81.5891L121.066 95.727L105.406 109.837ZM92.8721 95.727L105.406 107.089L117.95 95.727L105.406 84.402L92.8721 95.727Z" fill="#BA68C8"/>
<path d="M105.407 253.333L91.3122 266.057L105.407 278.782L119.501 266.058L105.407 253.333Z" fill="white"/>
<path d="M105.406 280.188L89.7564 266.06L105.406 251.922L121.066 266.06L105.406 280.188ZM92.8721 266.06L105.406 277.376L117.95 266.06L105.406 254.735L92.8721 266.06Z" fill="#BA68C8"/>
<path d="M294.492 82.6227L280.397 95.3473L294.492 108.072L308.586 95.3473L294.492 82.6227Z" fill="white"/>
<path d="M294.542 109.489L278.882 95.3514L294.542 81.2227L310.192 95.3514L294.542 109.489ZM281.998 95.3514L294.542 106.676L307.076 95.3514L294.542 84.0356L281.998 95.3514Z" fill="#BA68C8"/>
<path d="M200.157 19.1827C205.661 19.1827 210.123 15.1543 210.123 10.185C210.123 5.21577 205.661 1.18738 200.157 1.18738C194.652 1.18738 190.19 5.21577 190.19 10.185C190.19 15.1543 194.652 19.1827 200.157 19.1827Z" fill="white"/>
<path d="M200.157 20.1814C198.335 20.1827 196.541 19.7784 194.934 19.0041C193.327 18.2298 191.957 17.1096 190.944 15.7426C189.931 14.3757 189.308 12.8043 189.129 11.1678C188.95 9.53123 189.221 7.88007 189.917 6.36066C190.614 4.84125 191.716 3.50052 193.124 2.45732C194.532 1.41413 196.203 0.700676 197.99 0.380222C199.777 0.0597681 201.623 0.142211 203.366 0.620234C205.109 1.09826 206.694 1.95709 207.982 3.12063C209.528 4.51861 210.581 6.29906 211.008 8.23707C211.434 10.1751 211.215 12.1837 210.378 14.0093C209.54 15.8349 208.123 17.3955 206.304 18.494C204.484 19.5926 202.345 20.1797 200.157 20.1814ZM200.157 2.18604C198.11 2.18775 196.127 2.82989 194.546 4.00312C192.965 5.17635 191.883 6.80814 191.484 8.62063C191.086 10.4331 191.396 12.3142 192.361 13.9437C193.326 15.5731 194.887 16.8502 196.778 17.5574C198.669 18.2645 200.773 18.3581 202.732 17.8222C204.691 17.2862 206.383 16.1539 207.521 14.618C208.659 13.0821 209.172 11.2376 208.973 9.39851C208.774 7.55944 207.875 5.83954 206.429 4.53167C205.607 3.786 204.629 3.19479 203.553 2.79218C202.476 2.38958 201.322 2.18356 200.157 2.18604Z" fill="#BA68C8"/>
<path d="M11.0716 189.891C16.5758 189.891 21.0378 185.863 21.0378 180.893C21.0378 175.924 16.5758 171.896 11.0716 171.896C5.56734 171.896 1.10529 175.924 1.10529 180.893C1.10529 185.863 5.56734 189.891 11.0716 189.891Z" fill="white"/>
<path d="M11.0716 190.881C9.25045 190.88 7.45748 190.475 5.85152 189.7C4.24556 188.924 2.87619 187.803 1.86475 186.436C0.853314 185.069 0.231028 183.498 0.053023 181.861C-0.124982 180.225 0.146797 178.574 0.844276 177.056C1.54175 175.537 2.6434 174.197 4.0516 173.154C5.45981 172.112 7.1311 171.399 8.91739 171.079C10.7037 170.759 12.5498 170.842 14.2923 171.32C16.0347 171.798 17.6196 172.657 18.9066 173.82C20.4538 175.218 21.5071 177 21.9333 178.939C22.3594 180.877 22.1393 182.887 21.3007 184.713C20.4622 186.539 19.0429 188.099 17.2221 189.197C15.4014 190.295 13.261 190.881 11.0716 190.881ZM11.0716 172.885C9.0194 172.885 7.0307 173.528 5.44432 174.703C3.85794 175.878 2.77204 177.514 2.37163 179.331C1.97122 181.148 2.28109 183.034 3.24844 184.668C4.21578 186.302 5.78074 187.583 7.67668 188.292C9.57262 189.001 11.6822 189.094 13.646 188.557C15.6098 188.019 17.3064 186.883 18.4465 185.343C19.5867 183.802 20.0999 181.952 19.8988 180.109C19.6977 178.265 18.7947 176.541 17.3436 175.231C16.5206 174.486 15.5429 173.896 14.4666 173.494C13.3903 173.091 12.2366 172.884 11.0716 172.885Z" fill="#BA68C8"/>
</svg>
