<svg width="340" height="266" viewBox="0 0 340 266" fill="none" xmlns="http://www.w3.org/2000/svg">
<path d="M170 265.689C263.888 265.689 340 261.152 340 255.556C340 249.96 263.888 245.424 170 245.424C76.1116 245.424 0 249.96 0 255.556C0 261.152 76.1116 265.689 170 265.689Z" fill="#F5F5F5"/>
<path d="M185.572 24.1741H60.2354C56.7247 24.1741 53.8787 27.0795 53.8787 30.6635V222.008C53.8787 225.592 56.7247 228.498 60.2354 228.498H185.572C189.083 228.498 191.929 225.592 191.929 222.008V30.6635C191.929 27.0795 189.083 24.1741 185.572 24.1741Z" fill="#263238"/>
<path opacity="0.4" d="M185.572 24.1741H60.2354C56.7247 24.1741 53.8787 27.0795 53.8787 30.6635V222.008C53.8787 225.592 56.7247 228.498 60.2354 228.498H185.572C189.083 228.498 191.929 225.592 191.929 222.008V30.6635C191.929 27.0795 189.083 24.1741 185.572 24.1741Z" fill="white"/>
<path opacity="0.2" d="M185.353 39.1306H65.7241V220.549H185.353V39.1306Z" fill="black"/>
<path d="M126.573 21.4972C126.573 20.5025 126.186 19.5485 125.497 18.8452C124.808 18.1418 123.874 17.7467 122.899 17.7467C121.925 17.7467 120.99 18.1418 120.301 18.8452C119.612 19.5485 119.225 20.5025 119.225 21.4972H92.9219C92.6786 21.496 92.4375 21.544 92.2125 21.6385C91.9876 21.733 91.7831 21.8721 91.6111 22.0477C91.4391 22.2233 91.3029 22.432 91.2103 22.6617C91.1178 22.8913 91.0707 23.1375 91.0719 23.3858V42.9258H154.665V23.3858C154.666 23.1375 154.619 22.8913 154.527 22.6617C154.434 22.432 154.298 22.2233 154.126 22.0477C153.954 21.8721 153.749 21.733 153.524 21.6385C153.299 21.544 153.058 21.496 152.815 21.4972H126.573ZM122.899 19.5369C123.279 19.5369 123.65 19.6519 123.966 19.8673C124.282 20.0827 124.528 20.3888 124.673 20.747C124.819 21.1052 124.857 21.4993 124.782 21.8796C124.708 22.2598 124.525 22.6091 124.257 22.8833C123.988 23.1574 123.646 23.3441 123.274 23.4198C122.901 23.4954 122.515 23.4566 122.164 23.3082C121.814 23.1598 121.514 22.9086 121.303 22.5862C121.092 22.2639 120.979 21.8849 120.979 21.4972C120.979 20.9773 121.181 20.4787 121.541 20.111C121.902 19.7434 122.39 19.5369 122.899 19.5369Z" fill="#263238"/>
<path d="M182.714 36.4456H63.0851V217.864H182.714V36.4456Z" fill="#BA68C8"/>
<path opacity="0.7" d="M182.714 36.4456H63.0851V217.864H182.714V36.4456Z" fill="white"/>
<g opacity="0.4">
<path d="M163.828 56.5226H81.9708V60.9981H163.828V56.5226Z" fill="black"/>
</g>
<g opacity="0.4">
<path d="M163.837 72.4192H90.7477V74.2094H163.837V72.4192Z" fill="black"/>
</g>
<g opacity="0.4">
<path d="M163.828 79.3566H81.9708V81.1468H163.828V79.3566Z" fill="black"/>
</g>
<g opacity="0.4">
<path d="M163.828 86.2935H81.9708V88.0836H163.828V86.2935Z" fill="black"/>
</g>
<g opacity="0.4">
<path d="M163.828 93.2394H81.9708V95.0296H163.828V93.2394Z" fill="black"/>
</g>
<g opacity="0.4">
<path d="M163.828 100.176H81.9708V101.966H163.828V100.176Z" fill="black"/>
</g>
<g opacity="0.4">
<path d="M163.828 107.113H81.9708V108.904H163.828V107.113Z" fill="black"/>
</g>
<g opacity="0.4">
<path d="M119.962 114.05H81.9708V115.84H119.962V114.05Z" fill="black"/>
</g>
<g opacity="0.4">
<path d="M96.3501 142.273H81.9708V127.647H96.3501V142.273ZM83.7682 140.482H94.5965V129.437H83.7244L83.7682 140.482Z" fill="black"/>
</g>
<g opacity="0.4">
<path d="M163.837 131.352H100.971V133.143H163.837V131.352Z" fill="black"/>
<path d="M143.811 136.777H100.971V138.567H143.811V136.777Z" fill="black"/>
</g>
<g opacity="0.4">
<path d="M96.3501 169.144H81.9708V154.518H96.3501V169.144ZM83.7682 167.353H94.5965V156.308H83.7244L83.7682 167.353Z" fill="black"/>
</g>
<g opacity="0.4">
<path d="M163.837 158.223H100.971V160.013H163.837V158.223Z" fill="black"/>
<path d="M143.811 163.647H100.971V165.438H143.811V163.647Z" fill="black"/>
</g>
<g opacity="0.4">
<path d="M96.3501 196.014H81.9708V181.379H96.3501V196.014ZM83.7682 194.224H94.5965V183.169H83.7244L83.7682 194.224Z" fill="black"/>
</g>
<g opacity="0.4">
<path d="M163.837 185.085H100.971V186.875H163.837V185.085Z" fill="black"/>
<path d="M143.811 190.519H100.971V192.309H143.811V190.519Z" fill="black"/>
</g>
<path d="M87.6087 139.095L85.0485 135.488L86.4689 134.431L87.7577 136.257L91.8699 131.639L93.1675 132.847L87.6087 139.095Z" fill="#BA68C8"/>
<path d="M87.6087 165.957L85.0485 162.35L86.4689 161.303L87.7577 163.129L91.8699 158.51L93.1675 159.718L87.6087 165.957Z" fill="#BA68C8"/>
<path d="M87.6087 192.828L85.0485 189.221L86.4689 188.173L87.7577 189.999L91.8699 185.381L93.1675 186.589L87.6087 192.828Z" fill="#BA68C8"/>
<g opacity="0.2">
<path d="M145.056 48.2875H102.488C102.117 48.2981 101.748 48.2267 101.406 48.0782C101.064 47.9298 100.758 47.7077 100.508 47.4272C100.258 47.1467 100.071 46.8144 99.9587 46.4531C99.8463 46.0918 99.8118 45.7099 99.8574 45.3337L101.024 33.6975C101.103 32.878 101.475 32.117 102.068 31.5592C102.661 31.0013 103.435 30.6856 104.241 30.672H146.783C147.155 30.6597 147.526 30.7302 147.869 30.8787C148.212 31.0273 148.519 31.2502 148.77 31.532C149.02 31.8139 149.207 32.148 149.318 32.5111C149.429 32.8742 149.462 33.2576 149.413 33.6348L148.247 45.271C148.168 46.0851 147.8 46.8414 147.212 47.3972C146.624 47.9529 145.857 48.2696 145.056 48.2875ZM104.084 32.4622C103.77 32.4688 103.469 32.5912 103.237 32.8068C103.005 33.0224 102.857 33.3165 102.821 33.6348L101.655 45.271C101.637 45.4191 101.651 45.5692 101.695 45.7113C101.739 45.8534 101.813 45.9841 101.911 46.0945C102.009 46.2049 102.13 46.2925 102.264 46.3512C102.398 46.4099 102.543 46.4383 102.689 46.4347H145.231C145.543 46.4284 145.843 46.3073 146.075 46.0935C146.307 45.8797 146.456 45.5877 146.494 45.271L147.66 33.6348C147.679 33.4869 147.666 33.3365 147.623 33.1939C147.58 33.0514 147.507 32.92 147.41 32.8087C147.312 32.6975 147.193 32.6089 147.059 32.5491C146.925 32.4893 146.78 32.4597 146.634 32.4622H104.084Z" fill="black"/>
</g>
<path d="M144.179 47.3923H101.611C100.843 47.3923 100.106 47.0814 99.5618 46.5277C99.0178 45.9741 98.711 45.2228 98.7087 44.4385V32.8023C98.7005 32.408 98.7696 32.016 98.9118 31.6492C99.054 31.2825 99.2664 30.9485 99.5367 30.6667C99.807 30.3849 100.13 30.161 100.486 30.0082C100.842 29.8554 101.225 29.7768 101.611 29.7769H144.161C144.931 29.7769 145.669 30.089 146.213 30.6446C146.758 31.2003 147.063 31.9538 147.063 32.7396V44.3759C147.07 44.7679 147.001 45.1575 146.859 45.522C146.718 45.8865 146.507 46.2187 146.238 46.4993C145.97 46.7799 145.65 47.0033 145.296 47.1566C144.943 47.3099 144.563 47.39 144.179 47.3923ZM101.611 31.567C101.306 31.567 101.014 31.6906 100.799 31.9105C100.583 32.1304 100.462 32.4286 100.462 32.7396V44.3759C100.465 44.6853 100.587 44.9813 100.802 45.1992C101.017 45.4172 101.308 45.5395 101.611 45.5395H144.161C144.464 45.5395 144.755 45.4172 144.97 45.1992C145.186 44.9813 145.308 44.6853 145.31 44.3759V32.7396C145.31 32.4286 145.189 32.1304 144.973 31.9105C144.758 31.6906 144.466 31.567 144.161 31.567H101.611Z" fill="white"/>
<path d="M139.628 27.0382H106.17C105.449 27.0382 104.864 27.6353 104.864 28.3719V33.0264C104.864 33.763 105.449 34.3601 106.17 34.3601H139.628C140.35 34.3601 140.935 33.763 140.935 33.0264V28.3719C140.935 27.6353 140.35 27.0382 139.628 27.0382Z" fill="#263238"/>
<path opacity="0.1" d="M139.628 27.0382H106.17C105.449 27.0382 104.864 27.6353 104.864 28.3719V33.0264C104.864 33.763 105.449 34.3601 106.17 34.3601H139.628C140.35 34.3601 140.935 33.763 140.935 33.0264V28.3719C140.935 27.6353 140.35 27.0382 139.628 27.0382Z" fill="white"/>
<path d="M41.7877 236.607C41.7877 236.607 45.9524 227.325 41.1915 218.186C36.4305 209.047 35.054 206.881 38.0876 205.01C41.1213 203.139 42.4716 212.323 42.4716 212.323C43.9787 208.173 44.1355 203.637 42.9187 199.389C40.8057 192.774 39.4817 181.997 42.3664 180.842C45.251 179.688 42.9187 194.269 45.4176 199.255C46.6945 195.763 47.5169 192.116 47.8638 188.406C48.2145 183.089 47.6709 174.604 49.9506 172.429C52.2302 170.253 53.6857 171.757 51.4499 183.483C50.1007 190.489 49.3555 197.603 49.2228 204.742C49.2228 204.742 54.1679 189.364 57.4821 188.916C60.7964 188.469 60.7964 193.445 57.9556 197.769C55.1148 202.092 49.6437 209.826 48.7406 213.809C48.7406 213.809 54.1679 202.235 59.0516 205.753C63.9353 209.271 54.7992 216.297 50.7309 218.821C46.6626 221.346 43.8394 237.189 43.8394 237.189L41.7877 236.607Z" fill="#BA68C8"/>
<path opacity="0.2" d="M41.7877 236.607C41.7877 236.607 45.9524 227.325 41.1915 218.186C36.4305 209.047 35.054 206.881 38.0876 205.01C41.1213 203.139 42.4716 212.323 42.4716 212.323C43.9787 208.173 44.1355 203.637 42.9187 199.389C40.8057 192.774 39.4817 181.997 42.3664 180.842C45.251 179.688 42.9187 194.269 45.4176 199.255C46.6945 195.763 47.5169 192.116 47.8638 188.406C48.2145 183.089 47.6709 174.604 49.9506 172.429C52.2302 170.253 53.6857 171.757 51.4499 183.483C50.1007 190.489 49.3555 197.603 49.2228 204.742C49.2228 204.742 54.1679 189.364 57.4821 188.916C60.7964 188.469 60.7964 193.445 57.9556 197.769C55.1148 202.092 49.6437 209.826 48.7406 213.809C48.7406 213.809 54.1679 202.235 59.0516 205.753C63.9353 209.271 54.7992 216.297 50.7309 218.821C46.6626 221.346 43.8394 237.189 43.8394 237.189L41.7877 236.607Z" fill="black"/>
<path d="M45.0755 240.411C45.0755 240.411 41.0247 231.066 45.8909 221.999C50.757 212.931 52.1599 210.792 49.1438 208.877C46.1276 206.961 44.6371 216.118 44.6371 216.118C43.1831 211.947 43.0786 207.41 44.339 203.175C46.5309 196.596 47.9776 185.837 45.1105 184.637C42.2435 183.438 44.4004 198.064 41.8401 203.014C40.6085 199.501 39.8304 195.839 39.5254 192.12C39.2361 186.803 39.8761 178.327 37.6316 176.116C35.387 173.905 33.9052 175.382 36.0007 187.144C37.2659 194.169 37.9261 201.295 37.9735 208.438C37.9735 208.438 33.2213 192.98 29.8983 192.478C26.5753 191.977 26.5315 196.954 29.3196 201.331C32.1078 205.708 37.4913 213.513 38.3418 217.514C38.3418 217.514 33.081 205.878 28.136 209.324C23.1909 212.77 32.2569 219.931 36.2989 222.518C40.3408 225.105 42.9712 241.019 42.9712 241.019L45.0755 240.411Z" fill="#BA68C8"/>
<path d="M26.3736 233.751H59.8756L57.1663 258.223H29.0829L26.3736 233.751Z" fill="#263238"/>
<path d="M227 221.569H175.594V258.232H227V221.569Z" fill="#BA68C8"/>
<path opacity="0.2" d="M227 221.569H175.594V258.232H227V221.569Z" fill="white"/>
<path opacity="0.2" d="M188.5 221.56H175.594V258.223H227L188.5 257.087V221.56Z" fill="black"/>
<path opacity="0.7" d="M183.231 221.569H180.109V223.601H183.231V221.569Z" fill="white"/>
<path opacity="0.7" d="M183.231 256.191H180.109V258.223H183.231V256.191Z" fill="white"/>
<path d="M222.081 232.194L222.072 232.23L220.442 236.455L219.828 238.039L218.67 235.909L216.408 236.661L218.67 230.816L220.1 231.398L222.002 232.159L222.081 232.194Z" fill="#263238"/>
<g opacity="0.2">
<path d="M219.837 237.261L218.855 235.471L216.917 236.115L218.872 231.049L221.801 232.23L219.837 237.261ZM218.89 235.345L219.828 237.082L221.695 232.248L218.916 231.174L217.048 236.008L218.89 235.345Z" fill="white"/>
</g>
<path opacity="0.2" d="M222.072 232.23L220.441 236.455C219.831 234.979 219.47 233.408 219.372 231.809L220.1 231.397L222.002 232.158L222.072 232.23Z" fill="black"/>
<path d="M221.704 238.039L222.853 235.909L225.115 236.661L222.862 230.816L219.442 232.194L221.704 238.039Z" fill="#263238"/>
<g opacity="0.2">
<path d="M219.731 232.203L222.651 231.021L224.606 236.087L222.669 235.443L221.687 237.233L219.731 232.203ZM224.475 235.962L222.607 231.173L219.828 232.292L221.695 237.126L222.634 235.389L224.475 235.962Z" fill="white"/>
</g>
<path d="M220.766 223.924L221.17 223.601L221.512 223.995L221.959 223.745L222.23 224.192L222.721 224.04L222.906 224.523L223.414 224.461L223.511 224.971L224.019 225.007L224.028 225.526L224.528 225.651L224.44 226.161L224.913 226.376L224.738 226.868L225.159 227.164L224.905 227.611L225.264 227.978L224.931 228.372L225.229 228.802L224.835 229.133L225.054 229.607L224.598 229.858L224.738 230.368L224.247 230.529L224.291 231.057L223.782 231.129L223.73 231.648L223.212 231.63L223.072 232.141L222.572 232.024L222.344 232.499L221.871 232.293L221.564 232.713L221.135 232.427L220.766 232.785L220.389 232.427L219.96 232.713L219.653 232.293L219.179 232.499L218.951 232.024L218.452 232.141L218.311 231.63L217.794 231.648L217.741 231.129L217.242 231.057L217.277 230.529L216.794 230.368L216.926 229.858L216.47 229.607L216.689 229.133L216.295 228.802L216.593 228.372L216.26 227.978L216.628 227.611L216.365 227.164L216.794 226.868L216.619 226.376L217.084 226.161L216.996 225.651L217.496 225.526L217.505 225.007L218.013 224.971L218.11 224.461L218.618 224.523L218.802 224.04L219.293 224.192L219.565 223.745L220.021 223.995L220.363 223.601L220.766 223.924Z" fill="#BA68C8"/>
<path opacity="0.2" d="M224.641 228.192C224.643 228.977 224.416 229.745 223.99 230.399C223.564 231.052 222.958 231.562 222.248 231.863C221.537 232.164 220.756 232.244 220.001 232.091C219.247 231.938 218.554 231.56 218.011 231.005C217.467 230.45 217.097 229.743 216.947 228.973C216.798 228.203 216.875 227.405 217.17 226.68C217.465 225.955 217.965 225.336 218.605 224.901C219.245 224.466 219.997 224.234 220.766 224.236C221.793 224.238 222.777 224.656 223.504 225.397C224.23 226.139 224.639 227.144 224.641 228.192Z" fill="black"/>
<path d="M218.96 228.345L219.837 228.264C219.956 227.564 219.976 226.85 219.898 226.143C220.055 226.119 220.215 226.119 220.371 226.143C220.529 226.143 220.696 227.79 220.696 227.79C221.276 227.697 221.862 227.64 222.449 227.62C222.515 227.766 222.551 227.925 222.555 228.085C222.558 228.136 222.544 228.186 222.516 228.227C222.487 228.268 222.445 228.297 222.397 228.309H222.344V229.92C222.347 229.981 222.326 230.04 222.287 230.085C222.248 230.13 222.193 230.157 222.134 230.162L220.599 230.287C220.447 230.297 220.295 230.263 220.161 230.189L219.986 230.082L219.039 230.216L218.96 228.345Z" fill="#BA68C8"/>
<path opacity="0.7" d="M218.96 228.345L219.837 228.264C219.956 227.564 219.976 226.85 219.898 226.143C220.055 226.119 220.215 226.119 220.371 226.143C220.529 226.143 220.696 227.79 220.696 227.79C221.276 227.697 221.862 227.64 222.449 227.62C222.515 227.766 222.551 227.925 222.555 228.085C222.558 228.136 222.544 228.186 222.516 228.227C222.487 228.268 222.445 228.297 222.397 228.309H222.344V229.92C222.347 229.981 222.326 230.04 222.287 230.085C222.248 230.13 222.193 230.157 222.134 230.162L220.599 230.287C220.447 230.297 220.295 230.263 220.161 230.189L219.986 230.082L219.039 230.216L218.96 228.345Z" fill="white"/>
<path opacity="0.2" d="M188.5 221.56L175.164 236.455V221.56H188.5Z" fill="black"/>
<path d="M208.85 184.906H157.444V221.569H208.85V184.906Z" fill="#BA68C8"/>
<path opacity="0.2" d="M208.85 184.906H157.444V221.569H208.85V184.906Z" fill="white"/>
<path opacity="0.2" d="M170.351 184.906H157.444V221.56H208.85L170.351 220.424V184.906Z" fill="black"/>
<path opacity="0.7" d="M165.081 184.906H161.96V186.938H165.081V184.906Z" fill="white"/>
<path opacity="0.7" d="M165.081 219.528H161.96V221.56H165.081V219.528Z" fill="white"/>
<path d="M203.94 195.531L203.923 195.567L202.292 199.791L201.678 201.376L200.53 199.245L198.259 199.997L200.521 194.152L201.959 194.734L203.853 195.495L203.94 195.531Z" fill="#263238"/>
<g opacity="0.2">
<path d="M201.696 200.597L200.705 198.807L198.767 199.451L200.723 194.394L203.651 195.567L201.696 200.597ZM200.74 198.682L201.678 200.418L203.555 195.585L200.767 194.475L198.899 199.308L200.74 198.682Z" fill="white"/>
</g>
<path opacity="0.2" d="M203.923 195.567L202.292 199.792C201.682 198.316 201.32 196.745 201.222 195.146L201.959 194.734L203.853 195.495L203.923 195.567Z" fill="black"/>
<path d="M203.555 201.376L204.703 199.245L206.974 199.997L204.712 194.152L201.293 195.531L203.555 201.376Z" fill="#263238"/>
<g opacity="0.2">
<path d="M201.564 195.54L204.484 194.367L206.448 199.424L204.51 198.78L203.52 200.57L201.564 195.54ZM206.317 199.299L204.449 194.465L201.661 195.584L203.528 200.418L204.466 198.681L206.317 199.299Z" fill="white"/>
</g>
<path d="M202.617 187.26L203.02 186.938L203.362 187.332L203.818 187.081L204.081 187.529L204.572 187.376L204.756 187.86L205.265 187.797L205.361 188.316L205.878 188.343V188.862L206.378 188.988L206.291 189.498L206.764 189.713L206.589 190.205L207.009 190.5L206.755 190.948L207.123 191.315L206.79 191.718L207.088 192.138L206.685 192.47L206.904 192.944L206.457 193.195L206.589 193.705L206.098 193.875L206.141 194.394L205.633 194.466L205.58 194.985L205.072 194.976L204.931 195.477L204.423 195.361L204.204 195.835L203.73 195.629L203.423 196.05L202.994 195.764L202.617 196.131L202.24 195.764L201.81 196.05L201.503 195.629L201.03 195.835L200.802 195.361L200.302 195.477L200.162 194.976L199.644 194.985L199.601 194.466L199.092 194.394L199.136 193.875L198.645 193.705L198.776 193.195L198.329 192.944L198.549 192.47L198.145 192.138L198.443 191.718L198.11 191.315L198.478 190.948L198.224 190.5L198.645 190.205L198.47 189.713L198.934 189.498L198.855 188.988L199.355 188.862V188.343L199.872 188.316L199.969 187.797L200.477 187.86L200.662 187.376L201.153 187.529L201.416 187.081L201.872 187.332L202.213 186.938L202.617 187.26Z" fill="#BA68C8"/>
<path opacity="0.2" d="M206.492 191.53C206.494 192.315 206.267 193.083 205.841 193.736C205.415 194.389 204.808 194.899 204.098 195.2C203.388 195.502 202.607 195.581 201.852 195.428C201.098 195.275 200.405 194.898 199.861 194.343C199.318 193.787 198.947 193.08 198.798 192.31C198.648 191.54 198.726 190.742 199.021 190.017C199.316 189.292 199.815 188.673 200.455 188.238C201.095 187.803 201.848 187.572 202.617 187.573C203.644 187.573 204.63 187.99 205.357 188.732C206.084 189.474 206.492 190.48 206.492 191.53Z" fill="black"/>
<path d="M200.81 191.682L201.687 191.601C201.807 190.901 201.828 190.186 201.749 189.48C201.906 189.457 202.065 189.457 202.222 189.48C202.38 189.48 202.546 191.127 202.546 191.127C203.127 191.034 203.713 190.977 204.3 190.957C204.361 190.957 204.388 191.252 204.405 191.422C204.409 191.472 204.395 191.522 204.366 191.563C204.337 191.604 204.295 191.633 204.247 191.646H204.195V193.257C204.197 193.317 204.177 193.376 204.137 193.421C204.098 193.466 204.043 193.494 203.984 193.499L202.45 193.624C202.298 193.631 202.147 193.597 202.012 193.526L201.836 193.418L200.898 193.561L200.81 191.682Z" fill="#BA68C8"/>
<path opacity="0.7" d="M200.81 191.682L201.687 191.601C201.807 190.901 201.828 190.186 201.749 189.48C201.906 189.457 202.065 189.457 202.222 189.48C202.38 189.48 202.546 191.127 202.546 191.127C203.127 191.034 203.713 190.977 204.3 190.957C204.361 190.957 204.388 191.252 204.405 191.422C204.409 191.472 204.395 191.522 204.366 191.563C204.337 191.604 204.295 191.633 204.247 191.646H204.195V193.257C204.197 193.317 204.177 193.376 204.137 193.421C204.098 193.466 204.043 193.494 203.984 193.499L202.45 193.624C202.298 193.631 202.147 193.597 202.012 193.526L201.836 193.418L200.898 193.561L200.81 191.682Z" fill="white"/>
<path d="M179.163 221.569H127.757V258.232H179.163V221.569Z" fill="#BA68C8"/>
<path opacity="0.2" d="M179.163 221.569H127.757V258.232H179.163V221.569Z" fill="white"/>
<path opacity="0.2" d="M140.663 221.56H127.757V258.223H179.163L140.663 257.087V221.56Z" fill="black"/>
<path opacity="0.7" d="M135.393 221.569H132.272V223.601H135.393V221.569Z" fill="white"/>
<path opacity="0.7" d="M135.393 256.191H132.272V258.223H135.393V256.191Z" fill="white"/>
<path d="M174.244 232.194L174.235 232.23L172.604 236.455L171.99 238.039L170.833 235.909L168.571 236.661L170.833 230.816L172.271 231.398L174.165 232.159L174.244 232.194Z" fill="#263238"/>
<g opacity="0.2">
<path d="M171.999 237.261L171.017 235.471L169.079 236.115L171.035 231.049L173.963 232.23L171.999 237.261ZM171.052 235.345L171.99 237.082L173.858 232.248L171.078 231.174L169.211 236.008L171.052 235.345Z" fill="white"/>
</g>
<path opacity="0.2" d="M174.235 232.23L172.63 236.455C172.02 234.979 171.659 233.408 171.561 231.809L172.288 231.397L174.191 232.158L174.235 232.23Z" fill="black"/>
<path d="M173.867 238.039L175.015 235.909L177.277 236.661L175.015 230.816L171.604 232.194L173.867 238.039Z" fill="#263238"/>
<g opacity="0.2">
<path d="M171.894 232.203L174.813 231.021L176.769 236.087L174.831 235.443L173.849 237.233L171.894 232.203ZM176.637 235.962L174.77 231.129L171.99 232.247L173.858 237.081L174.796 235.344L176.637 235.962Z" fill="white"/>
</g>
<path d="M172.929 223.924L173.332 223.601L173.674 223.995L174.13 223.745L174.393 224.192L174.884 224.04L175.068 224.523L175.576 224.461L175.673 224.971L176.181 225.007L176.19 225.526L176.69 225.651L176.602 226.161L177.076 226.376L176.9 226.868L177.321 227.164L177.067 227.611L177.435 227.978L177.093 228.372L177.391 228.802L176.997 229.133L177.216 229.607L176.769 229.858L176.9 230.368L176.409 230.529L176.453 231.057L175.945 231.129L175.892 231.648L175.384 231.63L175.235 232.141L174.735 232.024L174.507 232.499L174.033 232.293L173.726 232.713L173.297 232.427L172.929 232.785L172.552 232.427L172.122 232.713L171.815 232.293L171.342 232.499L171.114 232.024L170.614 232.141L170.474 231.63L169.956 231.648L169.904 231.129L169.395 231.057L169.439 230.529L168.957 230.368L169.088 229.858L168.632 229.607L168.852 229.133L168.457 228.802L168.755 228.372L168.422 227.978L168.79 227.611L168.527 227.164L168.957 226.868L168.781 226.376L169.246 226.161L169.158 225.651L169.658 225.526L169.667 225.007L170.175 224.971L170.272 224.461L170.78 224.523L170.965 224.04L171.456 224.192L171.727 223.745L172.183 223.995L172.525 223.601L172.929 223.924Z" fill="#BA68C8"/>
<path opacity="0.2" d="M176.804 228.192C176.806 228.977 176.579 229.745 176.153 230.399C175.727 231.052 175.12 231.562 174.41 231.863C173.7 232.164 172.918 232.244 172.164 232.091C171.41 231.938 170.717 231.56 170.173 231.005C169.629 230.45 169.259 229.743 169.11 228.973C168.96 228.203 169.038 227.405 169.333 226.68C169.628 225.955 170.127 225.336 170.767 224.901C171.407 224.466 172.16 224.234 172.928 224.236C173.956 224.238 174.94 224.656 175.666 225.397C176.393 226.139 176.802 227.144 176.804 228.192Z" fill="black"/>
<path d="M171.122 228.345L171.999 228.264C172.118 227.564 172.139 226.85 172.061 226.143C172.218 226.119 172.377 226.119 172.534 226.143C172.692 226.143 172.859 227.79 172.859 227.79C173.439 227.697 174.025 227.64 174.612 227.62C174.678 227.766 174.714 227.925 174.717 228.085C174.721 228.136 174.707 228.186 174.678 228.227C174.649 228.268 174.607 228.297 174.559 228.309H174.507V229.92C174.509 229.981 174.489 230.04 174.45 230.085C174.41 230.13 174.355 230.157 174.296 230.162L172.762 230.287C172.61 230.297 172.458 230.263 172.324 230.189L172.148 230.082L171.201 230.216L171.122 228.345Z" fill="#BA68C8"/>
<path opacity="0.7" d="M171.122 228.345L171.999 228.264C172.118 227.564 172.139 226.85 172.061 226.143C172.218 226.119 172.377 226.119 172.534 226.143C172.692 226.143 172.859 227.79 172.859 227.79C173.439 227.697 174.025 227.64 174.612 227.62C174.678 227.766 174.714 227.925 174.717 228.085C174.721 228.136 174.707 228.186 174.678 228.227C174.649 228.268 174.607 228.297 174.559 228.309H174.507V229.92C174.509 229.981 174.489 230.04 174.45 230.085C174.41 230.13 174.355 230.157 174.296 230.162L172.762 230.287C172.61 230.297 172.458 230.263 172.324 230.189L172.148 230.082L171.201 230.216L171.122 228.345Z" fill="white"/>
<path d="M193.305 63.4237L193.235 63.6117L183.792 88.0479L180.241 97.2405L173.569 84.924L160.461 89.2741L173.542 55.4574L181.845 58.805L192.805 63.2268L193.305 63.4237Z" fill="#263238"/>
<g opacity="0.2">
<path d="M180.32 92.7381L174.621 82.2028L163.415 85.9264L174.726 56.6567L191.639 63.4684L180.32 92.7381ZM174.831 81.6926L180.258 91.7177L191.043 63.719L174.954 57.2385L164.134 85.2014L174.831 81.6926Z" fill="white"/>
</g>
<path opacity="0.2" d="M193.235 63.6118L183.783 88.0479C180.264 79.5159 178.189 70.436 177.646 61.195L181.881 58.8141L192.84 63.2359L193.235 63.6118Z" fill="black"/>
<path d="M191.087 97.2405L197.75 84.924L210.858 89.2741L197.777 55.4574L178.014 63.4237L191.087 97.2405Z" fill="#263238"/>
<g opacity="0.2">
<path d="M179.645 63.4687L196.593 56.6301L207.912 85.8998L196.698 82.1762L191.043 92.7383L179.645 63.4687ZM207.132 85.2016L196.312 57.2388L180.215 63.7193L191.043 91.691L196.461 81.666L207.132 85.2016Z" fill="white"/>
</g>
<path d="M185.659 15.5539L188 13.6921L189.973 15.9567L192.604 14.5425L194.147 17.1293L196.979 16.2253L198.048 19.0448L200.994 18.6689L201.556 21.6495L204.519 21.8107L204.545 24.845L207.439 25.5432L206.939 28.5328L209.657 29.7502L208.64 32.5966L211.095 34.2973L209.604 36.9109L211.726 39.0234L209.797 41.3238L211.516 43.7942L209.219 45.7097L210.472 48.4487L207.877 49.9167L208.64 52.8436L205.825 53.8104L206.062 56.8268L203.125 57.2654L202.827 60.2819L199.863 60.1745L199.048 63.0835L196.146 62.4391L194.831 65.1602L192.086 63.9965L190.324 66.4312L187.825 64.7842L185.659 66.8608L183.494 64.7842L181.004 66.4312L179.233 63.9965L176.488 65.1602L175.182 62.4391L172.28 63.0835L171.464 60.1745L168.492 60.2819L168.203 57.2654L165.265 56.8268L165.502 53.8104L162.688 52.8436L163.45 49.9167L160.846 48.4487L162.109 45.7097L159.803 43.7942L161.53 41.3238L159.593 39.0234L161.723 36.9109L160.224 34.2973L162.688 32.5966L161.671 29.7502L164.389 28.5328L163.889 25.5432L166.773 24.845L166.8 21.8107L169.763 21.6495L170.324 18.6689L173.27 19.0448L174.34 16.2253L177.172 17.1293L178.715 14.5425L181.346 15.9567L183.318 13.6921L185.659 15.5539Z" fill="#BA68C8"/>
<path opacity="0.2" d="M201.536 56.4832C210.301 47.5346 210.301 33.026 201.536 24.0773C192.77 15.1286 178.558 15.1287 169.793 24.0773C161.027 33.026 161.027 47.5346 169.793 56.4832C178.558 65.4319 192.77 65.4319 201.536 56.4832Z" fill="black"/>
<path d="M175.208 41.1358L180.469 40.6614C180.469 40.6614 181.434 36.7677 180.837 28.3896C181.738 28.2122 182.659 28.164 183.573 28.2464C184.45 28.4433 185.432 37.7613 185.432 37.7613C185.432 37.7613 194.927 36.4276 195.471 36.8125C195.813 37.0542 195.988 38.4863 196.076 39.4978C196.101 39.7845 196.027 40.0711 195.867 40.3081C195.707 40.5451 195.47 40.7175 195.199 40.7957L194.875 40.8852L195.059 50.2121C195.064 50.5581 194.94 50.8933 194.712 51.1494C194.484 51.4055 194.169 51.5632 193.831 51.5905L184.932 52.3156C184.052 52.3855 183.172 52.1827 182.407 51.7337L181.39 51.134L175.936 51.9307L175.208 41.1358Z" fill="#BA68C8"/>
<path opacity="0.7" d="M175.208 41.1358L180.469 40.6614C180.469 40.6614 181.434 36.7677 180.837 28.3896C181.738 28.2122 182.659 28.164 183.573 28.2464C184.45 28.4433 185.432 37.7613 185.432 37.7613C185.432 37.7613 194.927 36.4276 195.471 36.8125C195.813 37.0542 195.988 38.4863 196.076 39.4978C196.101 39.7845 196.027 40.0711 195.867 40.3081C195.707 40.5451 195.47 40.7175 195.199 40.7957L194.875 40.8852L195.059 50.2121C195.064 50.5581 194.94 50.8933 194.712 51.1494C194.484 51.4055 194.169 51.5632 193.831 51.5905L184.932 52.3156C184.052 52.3855 183.172 52.1827 182.407 51.7337L181.39 51.134L175.936 51.9307L175.208 41.1358Z" fill="white"/>
<path d="M229.244 65.2941L221.73 61.2482L226.202 55.1705C226.202 55.1705 231.866 57.2472 231.998 62.3313L229.244 65.2941Z" fill="#E4897B"/>
<path d="M218.302 56.1285L222.703 52.4229L226.184 55.1708L221.713 61.2485L218.302 56.1285Z" fill="#E4897B"/>
<path d="M262.667 53.6045C261.231 53.9177 259.855 54.4744 258.599 55.2515C257.474 55.9523 256.432 56.7843 255.495 57.7309C254.006 59.2445 252.61 60.8498 251.313 62.5376C248.884 65.6256 246.613 68.6779 244.299 71.7392C243.895 71.4885 243.483 71.2021 243.062 70.9067C242.343 70.4055 241.624 69.8505 240.897 69.2776C238.012 66.9862 235.084 64.4352 232.173 61.9647L228.595 65.1244C230.767 68.5478 233.21 71.784 235.899 74.8004C237.345 76.4509 238.949 77.9502 240.686 79.2759C241.24 79.6884 241.827 80.0536 242.44 80.3679C242.863 80.5848 243.307 80.7587 243.764 80.887C244.496 81.0976 245.26 81.1674 246.017 81.0929C246.289 81.0635 246.559 81.0126 246.824 80.9407C247.126 80.865 247.42 80.757 247.701 80.6185C248.304 80.3366 248.849 79.9384 249.305 79.4459L249.945 78.7209L250.927 77.6289C253.557 74.7019 256.074 71.6765 258.546 68.7764C259.774 67.3353 261.019 65.9121 262.106 64.829C262.535 64.3829 263.012 63.9867 263.527 63.6475C263.92 63.4052 264.345 63.2214 264.789 63.1015L262.667 53.6045Z" fill="#BA68C8"/>
<path opacity="0.7" d="M264.833 63.0923C264.388 63.215 263.963 63.4019 263.57 63.6473C263.05 63.979 262.573 64.3759 262.15 64.8288C261.694 65.2853 261.203 65.8044 260.703 66.3594C260.011 67.1113 259.292 67.9437 258.59 68.7762C257.038 70.5664 255.451 72.464 253.838 74.3347C252.9 75.4357 251.935 76.5366 250.971 77.6197L249.989 78.7207L249.349 79.4368C248.894 79.9328 248.349 80.3341 247.744 80.6183C247.462 80.7529 247.169 80.8608 246.868 80.9405C246.603 81.0124 246.333 81.0633 246.061 81.0927C245.304 81.1631 244.54 81.0934 243.808 80.8868C243.352 80.7547 242.909 80.5809 242.484 80.3677C241.871 80.0493 241.285 79.6811 240.73 79.2667C238.992 77.9412 237.389 76.4419 235.943 74.7912C233.254 71.7748 230.811 68.5387 228.639 65.1152L232.216 61.9466C235.119 64.426 238.056 66.977 240.94 69.2685C241.659 69.8413 242.387 70.3873 243.106 70.8886C243.518 71.1929 243.983 71.4794 244.342 71.73C246.64 68.6598 248.91 65.6165 251.357 62.5284C252.653 60.8376 254.05 59.2294 255.539 57.7128C256.475 56.7688 257.513 55.9369 258.634 55.2334C259.894 54.4649 261.268 53.9116 262.702 53.5953L264.833 63.0923Z" fill="white"/>
<path opacity="0.1" d="M260.703 66.3596C260.011 67.1115 259.292 67.9439 258.59 68.7764C257.038 70.5666 255.451 72.4641 253.838 74.3349C254.001 72.2588 254.617 70.2463 255.641 68.445C256.665 66.6437 258.072 65.0992 259.756 63.9249C260.241 64.657 260.564 65.4876 260.703 66.3596Z" fill="black"/>
<path d="M297.528 55.6544C295.675 61.4277 294.397 67.3775 293.714 73.4131C293.101 78.345 292.741 83.2591 292.548 87.7794C292.355 92.2996 292.32 96.5334 292.347 99.7557C292.39 103.954 292.531 106.576 292.531 106.576H257.179C252.172 70.0117 262.273 53.5061 262.273 53.5061C264.93 52.9964 267.615 52.6526 270.313 52.4768C270.874 52.4768 271.453 52.4231 272.067 52.4052C276.851 52.454 281.629 52.7858 286.376 53.3987C287.252 53.4972 288.182 53.6314 289.076 53.7836C293.548 54.5444 297.528 55.6544 297.528 55.6544Z" fill="#BA68C8"/>
<path opacity="0.7" d="M297.528 55.6454C296.693 58.1023 296 60.6069 295.45 63.1463C294.854 65.8316 294.372 68.6422 293.969 71.4618C293.881 72.1152 293.793 72.7596 293.714 73.4131C293.32 76.5996 293.031 79.7861 292.838 82.8474C292.724 84.5301 292.627 86.1771 292.557 87.7704C292.443 90.6168 292.382 93.2931 292.364 95.6741C292.364 97.151 292.364 98.5205 292.364 99.7468C292.364 103.954 292.54 106.576 292.54 106.576H257.205C252.199 70.0027 262.299 53.5061 262.299 53.5061C264.953 52.9915 267.635 52.6478 270.331 52.4768C270.9 52.4768 271.479 52.4141 272.084 52.4052C276.869 52.454 281.646 52.7858 286.393 53.3987C287.27 53.4972 288.199 53.6314 289.085 53.7746C293.548 54.5444 297.528 55.6454 297.528 55.6454Z" fill="white"/>
<path d="M230.823 256.03C230.823 256.03 242.589 252.45 243.448 247.76C243.462 247.649 243.497 247.542 243.553 247.446C243.609 247.35 243.684 247.267 243.773 247.203C243.862 247.138 243.964 247.092 244.071 247.07C244.178 247.047 244.288 247.047 244.395 247.07L252.944 248.529C253.146 248.564 253.335 248.655 253.49 248.793C253.644 248.93 253.759 249.109 253.821 249.308L256.451 257.794L254.04 257.865L253.163 256.648L252.146 257.928C238.994 258.349 233.356 258.384 230.735 257.633C230.27 256.46 230.823 256.03 230.823 256.03Z" fill="black"/>
<path d="M278.195 256.03C278.195 256.03 289.962 252.45 290.821 247.76C290.835 247.648 290.872 247.542 290.929 247.446C290.986 247.35 291.062 247.267 291.151 247.202C291.241 247.137 291.343 247.092 291.451 247.07C291.558 247.047 291.669 247.047 291.777 247.07L300.317 248.529C300.52 248.561 300.71 248.651 300.865 248.789C301.021 248.927 301.134 249.107 301.193 249.308L303.824 257.794L301.404 257.865L300.527 256.648L299.519 257.928C286.367 258.349 280.729 258.384 278.099 257.633C277.643 256.46 278.195 256.03 278.195 256.03Z" fill="black"/>
<path d="M281.229 108.125C281.159 108.339 279.046 115.106 276.196 124.809L275.705 126.51C274.364 131.129 272.882 136.356 271.391 141.727C269.568 148.323 267.735 155.26 266.131 161.902C263.79 171.506 261.896 180.493 261.142 186.965C258.678 208.241 253.882 250.248 253.882 250.248L242.773 247.384C242.773 247.384 240.748 201.895 242.852 180.162C244.194 166.351 250.208 138.236 254.145 120.763C256.153 111.812 257.652 105.627 257.652 105.627L270.383 106.979L281.229 108.125Z" fill="#263238"/>
<path opacity="0.2" d="M266.113 161.929C269.059 149.827 272.715 136.759 275.696 126.528L273.373 121.077C267.323 127.96 265.254 149.926 266.113 161.929Z" fill="black"/>
<path d="M301.781 249.621L289.506 250.839C289.506 250.839 275.311 208.715 273.461 186.678C272.672 177.092 271.918 158.545 271.356 141.753C270.936 129.455 270.62 118.105 270.48 111.902C270.401 108.796 270.357 106.979 270.357 106.979L281.229 108.133L292.864 108.5C292.864 108.5 293.408 111.23 293.25 122.777C292.996 140.679 292.373 172.267 292.741 189.229C293.18 211.204 301.781 249.621 301.781 249.621Z" fill="#263238"/>
<path d="M283.316 38.1104L274.653 45.8887C275.609 49.5318 274.197 52.951 272.47 53.6313L273.759 57.2744L284.464 53.0674C281.72 50.1673 282.5 42.8186 283.316 38.1104Z" fill="#E4897B"/>
<path opacity="0.2" d="M279.782 41.2699L274.653 45.8349C274.895 46.6828 275.06 47.5518 275.144 48.4307C277.108 48.1263 279.765 45.9065 279.94 43.803C280.036 42.9558 279.982 42.0979 279.782 41.2699Z" fill="black"/>
<path d="M283.587 50.8389C283.587 50.8389 276.95 52.9692 276.012 53.5242C275.074 54.0791 273.987 56.7823 273.987 56.7823C273.987 56.7823 274.714 54.0075 274.346 52.4232C273.978 50.8389 273.32 50.8389 273.32 50.8389L271.619 54.4193C271.619 54.4193 271.26 57.4894 273.987 57.937C276.713 58.3845 285.025 53.3093 285.025 53.3093L283.587 50.8389Z" fill="#BA68C8"/>
<path opacity="0.6" d="M283.587 50.8389C283.587 50.8389 276.95 52.9692 276.012 53.5242C275.074 54.0791 273.987 56.7823 273.987 56.7823C273.987 56.7823 274.714 54.0075 274.346 52.4232C273.978 50.8389 273.32 50.8389 273.32 50.8389L271.619 54.4193C271.619 54.4193 271.26 57.4894 273.987 57.937C276.713 58.3845 285.025 53.3093 285.025 53.3093L283.587 50.8389Z" fill="white"/>
<path d="M267.744 25.1045C266.183 26.9932 267.989 29.401 267.919 31.2449C267.849 33.0888 267.533 35.4966 269.857 32.9545C272.18 30.4124 270.181 22.4908 267.744 25.1045Z" fill="#263238"/>
<path d="M283.921 33.1692C283.14 39.3275 283.921 40.3748 280.668 43.3107C275.74 47.7325 268.147 48.1532 267.463 41.8159C266.85 36.1052 266.946 25.8474 273.049 23.8423C274.399 23.398 275.839 23.3112 277.231 23.5899C278.624 23.8686 279.925 24.5038 281.011 25.436C282.098 26.3681 282.935 27.5667 283.444 28.9193C283.953 30.2719 284.117 31.7342 283.921 33.1692Z" fill="#FF8B7B"/>
<path d="M283.026 37.3137C280.308 38.9965 279.423 35.0849 279.607 34.7806C280.431 33.4558 280.387 32.328 279.405 29.7949C278.423 27.2618 283.395 24.3348 287.016 25.4268C290.339 26.4383 287.016 29.0878 287.402 31.2987C288.173 35.2371 285.227 35.9621 283.026 37.3137Z" fill="#263238"/>
<path d="M269.419 39.8111C271.58 39.376 273.775 39.1364 275.977 39.095C275.442 40.4824 274.416 41.646 271.935 41.7803C269.454 41.9145 269.419 39.8111 269.419 39.8111Z" fill="white"/>
<path d="M286.419 37.4925C285.812 38.7894 284.743 39.801 283.43 40.321C281.764 40.9296 280.975 39.2469 281.474 37.4209C281.922 35.7739 283.324 33.4735 284.982 33.6615C286.639 33.8494 287.209 35.8365 286.419 37.4925Z" fill="#FF8B7B"/>
<path d="M276.547 33.3036C276.494 33.8227 276.258 33.8585 275.916 33.8138C275.574 33.769 275.276 33.6795 275.328 33.1604C275.381 32.6412 275.696 32.2653 276.038 32.2653C276.38 32.2653 276.6 32.7755 276.547 33.3036Z" fill="#263238"/>
<path d="M270.199 33.2766C270.147 33.8047 269.91 33.8316 269.568 33.7958C269.226 33.7599 268.928 33.6615 268.98 33.1334C269.033 32.6053 269.357 32.2383 269.691 32.2383C270.024 32.2383 270.261 32.7485 270.199 33.2766Z" fill="#263238"/>
<path d="M271.198 33.1067C270.67 34.3197 269.979 35.4522 269.147 36.4722C269.409 36.6849 269.713 36.8368 270.039 36.9171C270.364 36.9975 270.703 37.0045 271.032 36.9377L271.198 33.1067Z" fill="#FF5652"/>
<path d="M277.66 30.9943C277.712 30.9866 277.76 30.965 277.801 30.9316C277.862 30.8807 277.902 30.8076 277.911 30.7276C277.921 30.6475 277.9 30.5667 277.853 30.502C277.562 30.1038 277.182 29.7828 276.744 29.5663C276.306 29.3497 275.823 29.2439 275.337 29.2578C275.256 29.2668 275.182 29.3072 275.13 29.3705C275.078 29.4339 275.051 29.5153 275.056 29.5979C275.065 29.6795 275.105 29.7543 275.167 29.8062C275.23 29.8581 275.309 29.883 275.39 29.8754C275.773 29.8733 276.153 29.9629 276.497 30.1369C276.841 30.311 277.14 30.5647 277.371 30.8779C277.403 30.9234 277.448 30.9586 277.499 30.9792C277.55 30.9998 277.606 31.005 277.66 30.9943Z" fill="#263238"/>
<path d="M267.183 32.0506C267.232 32.0631 267.283 32.0631 267.332 32.0506C267.381 32.0382 267.426 32.0136 267.463 31.979C267.73 31.6989 268.059 31.4896 268.423 31.3695C268.787 31.2493 269.174 31.222 269.55 31.2898C269.589 31.299 269.629 31.3003 269.668 31.2935C269.707 31.2868 269.744 31.2721 269.778 31.2505C269.811 31.2288 269.84 31.2005 269.863 31.1673C269.885 31.1341 269.901 31.0966 269.91 31.057C269.928 30.9776 269.916 30.8938 269.875 30.8235C269.834 30.7533 269.768 30.7022 269.691 30.6811C269.218 30.5979 268.733 30.6308 268.276 30.7771C267.818 30.9234 267.402 31.1789 267.06 31.5225C267.031 31.5509 267.008 31.5849 266.993 31.6226C266.977 31.6603 266.969 31.7008 266.969 31.7418C266.969 31.7827 266.977 31.8233 266.993 31.8609C267.008 31.8986 267.031 31.9327 267.06 31.9611C267.093 32.0015 267.135 32.0324 267.183 32.0506Z" fill="#263238"/>
<path d="M274.39 26.1965C274.39 26.1965 269.822 28.2642 267.797 24.1915C265.771 20.1188 271.198 17.6931 271.198 17.6931C270.996 18.1375 270.891 18.6217 270.891 19.1118C270.891 19.602 270.996 20.0861 271.198 20.5306C271.198 20.5306 272.119 17.5767 275.942 18.5255C279.765 19.4744 285.85 20.6917 287.103 22.7683C287.424 23.2594 287.619 23.8252 287.67 24.4133C287.72 25.0015 287.625 25.5932 287.393 26.1339L281.15 27.6734C280.802 27.1228 280.35 26.6478 279.822 26.2755C279.293 25.9032 278.698 25.641 278.07 25.5038C277.442 25.3666 276.794 25.3572 276.162 25.4761C275.531 25.5949 274.929 25.8398 274.39 26.1965Z" fill="#263238"/>
<path d="M256.802 103.524L256.53 110.371L293.285 116.422C293.285 110.497 292.408 102.79 292.408 102.79L256.802 103.524Z" fill="#263238"/>
<path d="M292.162 106.352L292.916 106.335L292.653 103.855L291.987 103.864L292.162 106.352Z" fill="#263238"/>
<path d="M264.202 106.845L279.379 106.576L279.212 104.097L264.097 104.365L264.202 106.845Z" fill="#263238"/>
<path d="M262.93 104.383L256.512 104.499V106.979L263.009 106.862L262.93 104.383Z" fill="#263238"/>
<path d="M290.812 103.882L280.379 104.07L280.571 106.558L290.97 106.37L290.812 103.882Z" fill="#263238"/>
<g opacity="0.2">
<path d="M292.162 106.352L292.916 106.335L292.653 103.855L291.987 103.864L292.162 106.352Z" fill="white"/>
<path d="M264.202 106.845L279.379 106.576L279.212 104.097L264.097 104.365L264.202 106.845Z" fill="white"/>
<path d="M262.93 104.383L256.512 104.499V106.979L263.009 106.862L262.93 104.383Z" fill="white"/>
<path d="M290.812 103.881L280.379 104.069L280.571 106.558L290.97 106.37L290.812 103.881Z" fill="white"/>
</g>
<path d="M269.287 107.024C269.09 107.022 268.902 106.944 268.759 106.807C268.616 106.669 268.529 106.481 268.515 106.281L268.437 104.768C268.43 104.662 268.444 104.556 268.479 104.456C268.513 104.356 268.568 104.264 268.638 104.186C268.784 104.033 268.982 103.943 269.191 103.936L272.952 103.873C273.147 103.872 273.336 103.946 273.48 104.081C273.625 104.215 273.715 104.399 273.732 104.598L273.846 106.173C273.852 106.281 273.836 106.389 273.8 106.491C273.764 106.592 273.708 106.685 273.636 106.764C273.565 106.844 273.478 106.907 273.381 106.95C273.285 106.993 273.18 107.015 273.075 107.015L269.287 107.024ZM272.961 104.544L269.199 104.607C269.174 104.597 269.146 104.597 269.12 104.607C269.115 104.621 269.112 104.636 269.112 104.652C269.112 104.667 269.115 104.682 269.12 104.697L269.199 106.2C269.199 106.231 269.211 106.261 269.233 106.283C269.254 106.304 269.283 106.317 269.313 106.317H273.101C273.126 106.327 273.155 106.327 273.18 106.317C273.186 106.302 273.189 106.287 273.189 106.272C273.189 106.257 273.186 106.241 273.18 106.227L273.066 104.661C273.067 104.646 273.065 104.631 273.061 104.617C273.056 104.603 273.048 104.59 273.038 104.579C273.029 104.568 273.017 104.559 273.003 104.553C272.99 104.547 272.975 104.544 272.961 104.544Z" fill="white"/>
<path d="M272.943 105.753H271.786C271.738 105.761 271.689 105.758 271.643 105.745C271.596 105.731 271.553 105.708 271.516 105.676C271.48 105.644 271.45 105.604 271.43 105.56C271.409 105.515 271.399 105.466 271.399 105.417C271.399 105.368 271.409 105.319 271.43 105.274C271.45 105.229 271.48 105.19 271.516 105.158C271.553 105.126 271.596 105.102 271.643 105.089C271.689 105.076 271.738 105.073 271.786 105.081H272.943C273.021 105.094 273.092 105.135 273.143 105.197C273.195 105.258 273.223 105.336 273.223 105.417C273.223 105.498 273.195 105.576 273.143 105.637C273.092 105.699 273.021 105.74 272.943 105.753Z" fill="white"/>
<path opacity="0.1" d="M295.442 63.173C294.845 65.8582 294.363 68.6689 293.96 71.4884C293.213 69.0446 292.977 66.4677 293.267 63.9248C293.884 63.4239 294.653 63.158 295.442 63.173Z" fill="black"/>
<path opacity="0.1" d="M292.811 82.8741C292.697 84.5569 292.601 86.2039 292.531 87.7972C292.417 90.6436 292.355 93.3199 292.338 95.7009C288.638 94.1344 281.939 91.0374 281.15 88.6207C280.054 85.2641 281.869 83.7245 281.869 83.7245C285.53 83.6746 289.185 83.3906 292.811 82.8741Z" fill="black"/>
<path d="M276.626 82.2206L274.758 82.7934C274.297 82.9369 273.899 83.2413 273.634 83.6535C273.37 84.0658 273.256 84.5597 273.312 85.0491L273.592 87.5374C273.652 87.9803 273.849 88.3921 274.153 88.7138C274.457 89.0355 274.853 89.2504 275.284 89.3276L276.407 89.5335C277.554 90.2318 278.901 90.5061 280.223 90.3106C281.545 90.115 282.761 89.4614 283.666 88.4594L283.719 84.3778L277.932 82.2206C277.508 82.0772 277.05 82.0772 276.626 82.2206Z" fill="#E4897B"/>
<path d="M281.878 84.2883C281.878 84.2883 280.124 81.0122 280.072 79.0341C280.019 77.0559 278.318 79.3653 279.151 80.8243C279.369 81.2368 279.424 81.7188 279.305 82.1716C279.186 82.6243 278.902 83.0134 278.511 83.2589L281.878 84.2883Z" fill="#E4897B"/>
<path d="M307.953 83.3842L307.892 82.9188L307.83 82.5876L307.76 82.2117L307.629 81.4598C306.919 77.4318 306.121 73.4039 305.104 69.367C304.585 67.2457 303.956 65.1542 303.219 63.1013C302.778 61.9066 302.247 60.7485 301.632 59.6373C301.199 58.8618 300.675 58.1434 300.071 57.498C299.628 57.0318 299.13 56.6229 298.589 56.2807C297.913 55.8581 297.172 55.5554 296.397 55.3856C295.653 55.8357 295.018 56.4507 294.539 57.185C294.059 57.9194 293.747 58.7544 293.627 59.6284C293.206 61.2571 293.108 62.955 293.337 64.623C293.676 65.2754 293.969 65.9514 294.214 66.6459C294.828 68.275 295.398 70.11 295.968 71.9628C297.055 75.6238 298.046 79.419 299.071 83.2142C298.633 83.3484 298.133 83.4648 297.607 83.5722C296.737 83.7444 295.859 83.8699 294.977 83.9481C291.347 84.3241 287.401 84.3778 283.579 84.3957L282.851 89.1666C286.853 90.3518 290.968 91.096 295.126 91.3864C296.196 91.4401 297.291 91.467 298.44 91.3864C299.685 91.349 300.923 91.1749 302.131 90.8672C302.905 90.6563 303.652 90.356 304.358 89.9721C305.419 89.4193 306.324 88.5999 306.989 87.5912C307.405 86.941 307.702 86.2192 307.866 85.4609C307.998 84.7772 308.028 84.077 307.953 83.3842Z" fill="#BA68C8"/>
<path opacity="0.7" d="M307.953 83.3842L307.892 82.9188L307.83 82.5876L307.76 82.2117L307.629 81.4598C306.919 77.4318 306.121 73.4039 305.104 69.367C304.585 67.2457 303.956 65.1542 303.219 63.1013C302.778 61.9066 302.247 60.7485 301.632 59.6373C301.199 58.8618 300.675 58.1434 300.071 57.498C299.628 57.0318 299.13 56.6229 298.589 56.2807C297.913 55.8581 297.172 55.5554 296.397 55.3856C295.653 55.8357 295.018 56.4507 294.539 57.185C294.059 57.9194 293.747 58.7544 293.627 59.6284C293.206 61.2571 293.108 62.955 293.337 64.623C293.676 65.2754 293.969 65.9514 294.214 66.6459C294.828 68.275 295.398 70.11 295.968 71.9628C297.055 75.6238 298.046 79.419 299.071 83.2142C298.633 83.3484 298.133 83.4648 297.607 83.5722C296.737 83.7444 295.859 83.8699 294.977 83.9481C291.347 84.3241 287.401 84.3778 283.579 84.3957L282.851 89.1666C286.853 90.3518 290.968 91.096 295.126 91.3864C296.196 91.4401 297.291 91.467 298.44 91.3864C299.685 91.349 300.923 91.1749 302.131 90.8672C302.905 90.6563 303.652 90.356 304.358 89.9721C305.419 89.4193 306.324 88.5999 306.989 87.5912C307.405 86.941 307.702 86.2192 307.866 85.4609C307.998 84.7772 308.028 84.077 307.953 83.3842Z" fill="white"/>
</svg>
