<svg width="36" height="36" viewBox="0 0 36 36" fill="none" xmlns="http://www.w3.org/2000/svg">
<g clip-path="url(#clip0_5_1757)">
<path d="M17.9249 2.9873C21.9834 2.9873 22.4898 3.00224 24.0822 3.07693C25.673 3.15162 26.756 3.40107 27.709 3.77152C28.6949 4.15094 29.5254 4.66479 30.3559 5.49382C31.1155 6.24054 31.7032 7.1438 32.0782 8.14074C32.4472 9.09226 32.6981 10.1767 32.7728 11.7676C32.843 13.3599 32.8624 13.8663 32.8624 17.9248C32.8624 21.9833 32.8475 22.4897 32.7728 24.082C32.6981 25.6729 32.4472 26.7559 32.0782 27.7089C31.7043 28.7064 31.1164 29.6098 30.3559 30.3558C29.609 31.1151 28.7058 31.7028 27.709 32.0781C26.7575 32.447 25.673 32.698 24.0822 32.7727C22.4898 32.8429 21.9834 32.8623 17.9249 32.8623C13.8664 32.8623 13.36 32.8474 11.7677 32.7727C10.1768 32.698 9.09388 32.447 8.14086 32.0781C7.14353 31.7039 6.24011 31.116 5.49394 30.3558C4.73423 29.6092 4.14647 28.7059 3.77165 27.7089C3.4012 26.7574 3.15174 25.6729 3.07705 24.082C3.00685 22.4897 2.98743 21.9833 2.98743 17.9248C2.98743 13.8663 3.00236 13.3599 3.07705 11.7676C3.15174 10.1752 3.4012 9.09376 3.77165 8.14074C4.14544 7.14319 4.73333 6.23968 5.49394 5.49382C6.24032 4.73384 7.14368 4.14605 8.14086 3.77152C9.09388 3.40107 10.1754 3.15162 11.7677 3.07693C13.36 3.00672 13.8664 2.9873 17.9249 2.9873ZM17.9249 10.4561C15.9441 10.4561 14.0444 11.2429 12.6437 12.6436C11.2431 14.0443 10.4562 15.944 10.4562 17.9248C10.4562 19.9056 11.2431 21.8053 12.6437 23.206C14.0444 24.6067 15.9441 25.3936 17.9249 25.3936C19.9058 25.3936 21.8055 24.6067 23.2061 23.206C24.6068 21.8053 25.3937 19.9056 25.3937 17.9248C25.3937 15.944 24.6068 14.0443 23.2061 12.6436C21.8055 11.2429 19.9058 10.4561 17.9249 10.4561ZM27.6343 10.0826C27.6343 9.58741 27.4376 9.11248 27.0874 8.76232C26.7373 8.41215 26.2623 8.21543 25.7671 8.21543C25.2719 8.21543 24.797 8.41215 24.4468 8.76232C24.0966 9.11248 23.8999 9.58741 23.8999 10.0826C23.8999 10.5778 24.0966 11.0528 24.4468 11.4029C24.797 11.7531 25.2719 11.9498 25.7671 11.9498C26.2623 11.9498 26.7373 11.7531 27.0874 11.4029C27.4376 11.0528 27.6343 10.5778 27.6343 10.0826ZM17.9249 13.4436C19.1134 13.4436 20.2533 13.9157 21.0937 14.7561C21.934 15.5965 22.4062 16.7363 22.4062 17.9248C22.4062 19.1133 21.934 20.2531 21.0937 21.0935C20.2533 21.9339 19.1134 22.4061 17.9249 22.4061C16.7364 22.4061 15.5966 21.9339 14.7562 21.0935C13.9158 20.2531 13.4437 19.1133 13.4437 17.9248C13.4437 16.7363 13.9158 15.5965 14.7562 14.7561C15.5966 13.9157 16.7364 13.4436 17.9249 13.4436Z" fill="#BA68C8"/>
</g>
<defs>
<clipPath id="clip0_5_1757">
<rect width="35.85" height="35.85" fill="white"/>
</clipPath>
</defs>
</svg>
