<svg width="36" height="36" viewBox="0 0 36 36" fill="none" xmlns="http://www.w3.org/2000/svg">
<g clip-path="url(#clip0_5_1760)">
<path d="M10.3666 7.46849C10.3662 8.26082 10.0511 9.02055 9.49053 9.58053C8.92998 10.1405 8.16994 10.4549 7.37761 10.4545C6.58527 10.4541 5.82555 10.139 5.26556 9.57842C4.70558 9.01787 4.39121 8.25783 4.3916 7.4655C4.392 6.67316 4.70713 5.91344 5.26768 5.35345C5.82822 4.79347 6.58826 4.4791 7.3806 4.47949C8.17293 4.47989 8.93266 4.79502 9.49264 5.35557C10.0526 5.91611 10.367 6.67615 10.3666 7.46849ZM10.4562 12.6667H4.48123V31.3685H10.4562V12.6667ZM19.8967 12.6667H13.9516V31.3685H19.837V21.5546C19.837 16.0874 26.9622 15.5796 26.9622 21.5546V31.3685H32.8625V19.5231C32.8625 10.3066 22.3166 10.6502 19.837 15.1762L19.8967 12.6667Z" fill="#BA68C8"/>
</g>
<defs>
<clipPath id="clip0_5_1760">
<rect width="35.85" height="35.85" fill="white"/>
</clipPath>
</defs>
</svg>
