<svg width="36" height="36" viewBox="0 0 36 36" fill="none" xmlns="http://www.w3.org/2000/svg">
<g clip-path="url(#clip0_5_1766)">
<path d="M33.1045 8.44864C31.9641 8.95307 30.7547 9.28436 29.5165 9.43153C30.8216 8.65095 31.7985 7.42246 32.265 5.97499C31.0401 6.70394 29.6972 7.21481 28.2976 7.49115C27.3574 6.48523 26.1113 5.8181 24.7528 5.59347C23.3944 5.36884 21.9998 5.5993 20.7859 6.24903C19.572 6.89875 18.6067 7.93133 18.0402 9.18625C17.4736 10.4412 17.3376 11.8481 17.6531 13.1883C15.1692 13.0638 12.7392 12.4183 10.5209 11.2937C8.30259 10.1692 6.34561 8.59062 4.77698 6.66063C4.22174 7.61431 3.92996 8.69844 3.93152 9.80198C3.93152 11.9679 5.03391 13.8814 6.70989 15.0017C5.71806 14.9705 4.74805 14.7027 3.88073 14.2205V14.2982C3.88103 15.7407 4.38019 17.1387 5.29359 18.2552C6.20699 19.3717 7.4784 20.138 8.89226 20.424C7.97154 20.6736 7.00611 20.7103 6.06907 20.5316C6.46771 21.7732 7.24467 22.8592 8.29116 23.6373C9.33766 24.4154 10.6013 24.8467 11.9052 24.8709C10.6093 25.8887 9.12555 26.641 7.53875 27.0849C5.95194 27.5289 4.2932 27.6557 2.65735 27.4581C5.51295 29.2946 8.83714 30.2695 12.2323 30.2664C23.7237 30.2664 30.0079 20.7467 30.0079 12.4907C30.0079 12.2219 30.0004 11.95 29.9885 11.6841C31.2117 10.8001 32.2674 9.70492 33.106 8.45014L33.1045 8.44864Z" fill="#BA68C8"/>
</g>
<defs>
<clipPath id="clip0_5_1766">
<rect width="35.85" height="35.85" fill="white"/>
</clipPath>
</defs>
</svg>
